<svg xmlns="http://www.w3.org/2000/svg" width="115" height="115" viewBox="0 0 115 115">
    <defs>
        <style>
            .cls-1{fill:#a27abf}
        </style>
    </defs>
    <g id="icone" transform="translate(364)">
        <g id="Group_329" data-name="Group 329">
            <g id="Group_328" data-name="Group 328">
                <g id="Group_326" data-name="Group 326">
                    <path id="Path_397" d="M-249 57.5a57.585 57.585 0 0 0-35.04-52.929A57.175 57.175 0 0 0-306.5 0a57.175 57.175 0 0 0-22.46 4.571A57.585 57.585 0 0 0-364 57.5a57.587 57.587 0 0 0 35.04 52.929A57.175 57.175 0 0 0-306.5 115a57.175 57.175 0 0 0 22.46-4.571A57.587 57.587 0 0 0-249 57.5zm-35.245 48.749a53.263 53.263 0 0 1-22.255 4.858 53.263 53.263 0 0 1-22.255-4.858A53.67 53.67 0 0 1-360.107 57.5a53.667 53.667 0 0 1 31.352-48.749A53.263 53.263 0 0 1-306.5 3.893a53.278 53.278 0 0 1 22.255 4.857 53.67 53.67 0 0 1 31.352 48.75 53.668 53.668 0 0 1-31.352 48.749z" class="cls-1" data-name="Path 397"/>
                </g>
                <g id="Group_327" data-name="Group 327">
                    <path id="Path_398" d="M-293.969 67.31a12.693 12.693 0 0 0 11.169-6.917l7.138-15.911c1.785-3.979-.319-7.378-4.678-7.553l-12.646-.508-15.849-.636-12.647-.508c-4.358-.175-6.73 3.044-5.269 7.154l5.838 16.432a12.7 12.7 0 0 0 10.583 7.79z" class="cls-1" data-name="Path 398"/>
                    <path id="Path_399" d="M-310.1 80.363a4.677 4.677 0 0 1-4.677 4.677 4.677 4.677 0 0 1-4.675-4.677 4.676 4.676 0 0 1 4.675-4.676 4.676 4.676 0 0 1 4.677 4.676z" class="cls-1" data-name="Path 399"/>
                    <path id="Path_400" d="M-285.28 80.363a4.678 4.678 0 0 1-4.677 4.677 4.677 4.677 0 0 1-4.675-4.677 4.676 4.676 0 0 1 4.675-4.676 4.676 4.676 0 0 1 4.677 4.676z" class="cls-1" data-name="Path 400"/>
                    <path id="Path_401" d="M-322.046 74.8l-2.483-1.644-10.455-24.616H-345.9a2.7 2.7 0 0 1-2.7-2.7 2.7 2.7 0 0 1 2.7-2.7h12.7l2.483 1.643 10.453 24.617h33.913a2.7 2.7 0 0 1 2.7 2.7 2.7 2.7 0 0 1-2.7 2.7z" class="cls-1" data-name="Path 401"/>
                </g>
            </g>
        </g>
    </g>
</svg>
