<svg xmlns="http://www.w3.org/2000/svg" width="115" height="115" viewBox="0 0 115 115">
    <defs>
        <style>
            .cls-1{fill:#77b5ed}
        </style>
    </defs>
    <g id="icone" transform="translate(540)">
        <g id="Group_238" data-name="Group 238">
            <g id="Group_237" data-name="Group 237">
                <path id="Path_343" d="M-425 57.5a57.585 57.585 0 0 0-35.04-52.929A57.175 57.175 0 0 0-482.5 0a57.175 57.175 0 0 0-22.46 4.571A57.585 57.585 0 0 0-540 57.5a57.587 57.587 0 0 0 35.04 52.929A57.175 57.175 0 0 0-482.5 115a57.175 57.175 0 0 0 22.46-4.571A57.587 57.587 0 0 0-425 57.5zm-35.245 48.749a53.263 53.263 0 0 1-22.255 4.858 53.263 53.263 0 0 1-22.255-4.858A53.67 53.67 0 0 1-536.107 57.5a53.667 53.667 0 0 1 31.352-48.749A53.263 53.263 0 0 1-482.5 3.893a53.278 53.278 0 0 1 22.255 4.857 53.67 53.67 0 0 1 31.352 48.75 53.668 53.668 0 0 1-31.352 48.749z" class="cls-1" data-name="Path 343"/>
            </g>
        </g>
        <g id="Group_250" data-name="Group 250">
            <g id="Group_249" data-name="Group 249">
                <g id="Group_243" data-name="Group 243">
                    <g id="Group_241" data-name="Group 241">
                        <g id="Group_239" data-name="Group 239">
                            <path id="Path_344" d="M-497.54 75.173h-.262c-.167 0-.339-.014-.512-.027a9.917 9.917 0 0 1-1.54-.248l-.313-.084a9.386 9.386 0 0 1-1.449-.538 9.33 9.33 0 0 1-1.444-.837 9.275 9.275 0 0 1-.591-.45l-.215-.181a11.55 11.55 0 0 1-.686-.659 9.89 9.89 0 0 1-1.471-2.023l-.107-.2c-.122-.236-.232-.47-.333-.707l-.084-.206a9.948 9.948 0 0 1-.465-1.492 10.266 10.266 0 0 1-.259-2.095c-.004-.173 0-.348 0-.525a3.759 3.759 0 0 1 .039-.394l.016-.131a1.677 1.677 0 0 1 .044-.266 1.493 1.493 0 0 1 .01-.259.912.912 0 0 1 .01-.172l.018-.119c.022-.156.046-.312.078-.466q.079-.405.192-.807a10.8 10.8 0 0 1 .545-1.481l.094-.2c.114-.237.236-.468.367-.7l.122-.207a10.692 10.692 0 0 1 1.743-2.171l.2-.19c.1-.093.216-.192.334-.29l.227-.184c.177-.139.354-.269.536-.393l.1-.068a10 10 0 0 1 1.409-.792 10.152 10.152 0 0 1 1.509-.554c.1-.028.21-.056.319-.083a9.911 9.911 0 0 1 1.557-.248c.168-.014.343-.023.517-.027h.515c.166 0 .34.012.511.026a9.83 9.83 0 0 1 1.541.248c.112.028.219.057.325.087a9.455 9.455 0 0 1 1.437.535 9.772 9.772 0 0 1 1.444.835l.1.069c.153.109.323.239.489.376l.228.193c.111.1.222.2.329.3l.177.173a9.982 9.982 0 0 1 1.643 2.2l.109.205q.179.343.33.7l.085.2a10.177 10.177 0 0 1 .464 1.491q.092.4.153.813c.036.25.064.5.082.763l.024.513v.531a11.867 11.867 0 0 1-.08 1.038 10.163 10.163 0 0 1-.326 1.576 10.873 10.873 0 0 1-.545 1.482l-.1.213c-.109.227-.232.46-.364.689l-.121.206a10.535 10.535 0 0 1-1.744 2.171l-.195.182q-.164.148-.337.294l-.24.192a9.726 9.726 0 0 1-1.34.889 10.71 10.71 0 0 1-.7.356 10.123 10.123 0 0 1-1.506.552l-.319.084a9.917 9.917 0 0 1-1.556.248c-.17.013-.344.022-.517.027zm-7.368-11.126c0 .054.007.1.006.153a1.823 1.823 0 0 1-.063.409c0 .033-.013.122-.025.21a1.217 1.217 0 0 0-.017.147c0 .139-.006.276 0 .412s.01.277.019.412a7.856 7.856 0 0 0 .182 1.229 7.716 7.716 0 0 0 .361 1.158l.068.167c.077.179.162.361.255.539l.088.165A7.525 7.525 0 0 0-502.9 70.6c.09.1.179.185.269.271s.168.158.254.232l.167.14a7.994 7.994 0 0 0 1.057.725c.15.085.306.166.465.242a7.459 7.459 0 0 0 1.133.424l.248.066a7.4 7.4 0 0 0 1.18.189c.131.011.259.018.387.02h.4c.138 0 .267-.009.4-.02a7.576 7.576 0 0 0 1.2-.192l.255-.066a7.662 7.662 0 0 0 1.123-.41c.223-.1.4-.195.581-.293.2-.109.387-.228.575-.354s.338-.239.471-.344l.191-.153c.081-.068.171-.146.26-.227l.152-.142a8.279 8.279 0 0 0 1.376-1.713l.089-.151c.108-.187.205-.37.294-.556l.075-.161a8.432 8.432 0 0 0 .43-1.168c.06-.21.112-.424.157-.639.04-.2.072-.4.1-.6.016-.128.029-.266.04-.4s.018-.273.021-.412a5.146 5.146 0 0 0 0-.412l-.017-.4a8.77 8.77 0 0 0-.066-.608 7.289 7.289 0 0 0-.118-.63 7.88 7.88 0 0 0-.361-1.16l-.065-.158a7.762 7.762 0 0 0-.257-.545l-.088-.166a7.628 7.628 0 0 0-1.259-1.686l-.142-.139a6.023 6.023 0 0 0-.254-.231l-.167-.142c-.128-.1-.258-.206-.391-.3a7.727 7.727 0 0 0-1.134-.669 7.5 7.5 0 0 0-1.13-.422l-.248-.066a7.4 7.4 0 0 0-1.18-.189 5.635 5.635 0 0 0-.387-.02h-.4c-.137 0-.265.009-.393.02a7.7 7.7 0 0 0-1.2.191l-.243.064a7.7 7.7 0 0 0-1.137.414 8 8 0 0 0-1.15.644 9.34 9.34 0 0 0-.479.348l-.177.143c-.094.079-.182.156-.27.235l-.124.115a8.447 8.447 0 0 0-1.4 1.741l-.062.106c-.134.23-.229.414-.321.6l-1.1-.309 1.03.469a8.243 8.243 0 0 0-.428 1.166 8.01 8.01 0 0 0-.152.634c-.023.118-.04.23-.057.344-.023.066-.023.116-.031.157z" class="cls-1" data-name="Path 344"/>
                        </g>
                        <g id="Group_240" data-name="Group 240">
                            <path id="Path_345" d="M-506.678 65.139l-.106-.052 1.054-2-.517 1.006.544-.993.146.077z" class="cls-1" data-name="Path 345"/>
                        </g>
                    </g>
                    <g id="Group_242" data-name="Group 242">
                        <path id="Path_346" d="M-483.6 93.552h-28.931a1.465 1.465 0 0 1-1.1-.419 1.337 1.337 0 0 1-.37-.974l.27-9.552c0-.128 0-.257.012-.384a10.781 10.781 0 0 1 2.808-6.494l.146-.157a9.964 9.964 0 0 1 2.71-2.011l.189-.093c.275-.13.561-.251.853-.355l.185-.065a9.13 9.13 0 0 1 .806-.231l.621-.15.448.456a10.135 10.135 0 0 0 .789.722 10.505 10.505 0 0 0 2.3 1.443c.152.07.306.137.461.2a10.076 10.076 0 0 0 1.859.548 10.518 10.518 0 0 0 4.077-.047 1.978 1.978 0 0 1 .534-.086h.439a1.213 1.213 0 0 1 .235-.14 4.817 4.817 0 0 1 .492-.239 2.3 2.3 0 0 1 .407-.244 9.527 9.527 0 0 0 1.85-1.131l.363-.232a10.955 10.955 0 0 0 .986-.833l.447-.429.6.145a9.715 9.715 0 0 1 7.14 9.479 2.621 2.621 0 0 1-.04.448l-1.143.034 1.131.032-.267 9.432a1.255 1.255 0 0 1-1.307 1.327zm-28.1-2.262h27.182l.243-8.564a2.668 2.668 0 0 1 .039-.362 7.538 7.538 0 0 0-4.839-7.205c-.252.215-.528.434-.848.674a1.818 1.818 0 0 1-.357.225 11.442 11.442 0 0 1-2.145 1.282 2.488 2.488 0 0 1-.489.28 2.937 2.937 0 0 0-.269.135 2.726 2.726 0 0 1-1.3.408l-.5.036a12.806 12.806 0 0 1-4.977.056 12.27 12.27 0 0 1-2.275-.67 12.386 12.386 0 0 1-.567-.243 12.858 12.858 0 0 1-2.787-1.751q-.24-.2-.473-.41l-.023.008-.155.054a6.9 6.9 0 0 0-.645.271l-.142.069a7.719 7.719 0 0 0-2.1 1.562l-.9-.7.787.816a8.51 8.51 0 0 0-2.211 5.127c-.006.077-.006.155-.006.234v.158z" class="cls-1" data-name="Path 346"/>
                    </g>
                </g>
                <g id="Group_248" data-name="Group 248">
                    <g id="Group_246" data-name="Group 246">
                        <g id="Group_244" data-name="Group 244">
                            <path id="Path_347" d="M-475.275 75.4h-.243a12.86 12.86 0 0 1-.522-.027 9.709 9.709 0 0 1-1.551-.251 6.892 6.892 0 0 1-.323-.085 9.381 9.381 0 0 1-1.437-.535 9.885 9.885 0 0 1-.659-.339 9.162 9.162 0 0 1-.788-.5l-.1-.067a8.88 8.88 0 0 1-.489-.376l-.228-.192c-.111-.1-.221-.2-.328-.3s-.232-.226-.345-.345a9.9 9.9 0 0 1-1.475-2.028l-.109-.205c-.119-.229-.23-.463-.331-.7l-.083-.2a9.938 9.938 0 0 1-.466-1.492 10.065 10.065 0 0 1-.152-.813q-.056-.375-.083-.762c-.012-.176-.02-.347-.024-.519s0-.349 0-.525c.007-.231.011-.379.022-.526l.077-.671a10.978 10.978 0 0 1 .306-1.414 10.842 10.842 0 0 1 .547-1.482l.111-.234c.1-.2.221-.439.353-.667l.121-.206a10.7 10.7 0 0 1 1.743-2.172l.2-.181c.11-.1.225-.2.343-.3l.227-.182c.175-.138.353-.27.536-.394l.1-.068a10.075 10.075 0 0 1 1.41-.793 10.266 10.266 0 0 1 1.506-.552l.321-.084a10.03 10.03 0 0 1 1.557-.249c.174-.012.345-.022.517-.026h.252l.263.005c.163 0 .334.013.5.025a9.9 9.9 0 0 1 1.549.249l.312.083a9.418 9.418 0 0 1 1.45.539 9.719 9.719 0 0 1 1.442.834c.253.18.424.311.592.45l.215.182c.121.1.231.2.338.308l.177.174a9.952 9.952 0 0 1 1.643 2.2l.106.2c.122.236.232.469.333.707l.085.2a10.28 10.28 0 0 1 .464 1.492c.061.266.112.538.153.812.036.253.064.506.082.762l.024.515v.531a11.662 11.662 0 0 1-.08 1.038 10.423 10.423 0 0 1-.327 1.576 10.671 10.671 0 0 1-.545 1.482l-.1.2c-.114.238-.237.468-.367.7l-.128.215a10.6 10.6 0 0 1-1.738 2.165l-.205.188c-.1.091-.212.189-.328.286l-.24.194a10.93 10.93 0 0 1-1.34.893 9.557 9.557 0 0 1-.7.355 10.012 10.012 0 0 1-1.51.553c-.1.029-.209.057-.319.083a10.083 10.083 0 0 1-1.552.25c-.176.012-.344.021-.512.025zM-483 61.451l1.03.468a8.554 8.554 0 0 0-.452 1.213q-.09.316-.157.639a9.043 9.043 0 0 0-.077.443l-1.147.011 1.123.13-.025.156a1.355 1.355 0 0 1-.011.179c-.015.194-.018.3-.02.411-.006.226-.008.363 0 .5s.01.276.019.412a8.14 8.14 0 0 0 .182 1.23 7.9 7.9 0 0 0 .361 1.157l.066.161c.079.187.164.367.257.545l.083.158a7.657 7.657 0 0 0 1.137 1.563 8.267 8.267 0 0 0 .522.501l.167.141c.128.105.258.206.392.3a7.682 7.682 0 0 0 .662.424c.157.089.313.168.473.245a7.3 7.3 0 0 0 1.129.422l.247.065a7.417 7.417 0 0 0 1.182.191c.126.01.259.016.394.021H-475.052c.118 0 .253-.01.388-.02a7.64 7.64 0 0 0 1.191-.192l.246-.064a7.833 7.833 0 0 0 1.138-.413 7.812 7.812 0 0 0 1.153-.647c.2-.14.34-.242.475-.346l.178-.144c.09-.076.18-.154.27-.235l.156-.144a8.38 8.38 0 0 0 1.371-1.71l.093-.158c.1-.18.2-.363.292-.551l.073-.16a8.168 8.168 0 0 0 .43-1.166c.06-.212.112-.423.157-.64.04-.2.072-.4.1-.6.016-.129.029-.267.04-.4s.018-.274.021-.412.006-.276 0-.412l-.018-.4a7.833 7.833 0 0 0-.184-1.237 7.851 7.851 0 0 0-.361-1.16l-.05-.122c-.094-.222-.18-.4-.272-.583l-.088-.165a7.646 7.646 0 0 0-1.259-1.685l-.142-.139a6.827 6.827 0 0 0-.254-.232l-.166-.14a6.102 6.102 0 0 0-.392-.3 7.62 7.62 0 0 0-1.131-.666 7.3 7.3 0 0 0-1.135-.424l-.246-.066a7.3 7.3 0 0 0-1.179-.189 6.026 6.026 0 0 0-.388-.02h-.405c-.139 0-.27.01-.4.02a7.63 7.63 0 0 0-1.2.191l-.255.067a7.818 7.818 0 0 0-1.123.409 8.274 8.274 0 0 0-1.154.647c-.2.139-.34.24-.472.344l-.191.154a9.803 9.803 0 0 0-.261.227l-.152.141a8.391 8.391 0 0 0-1.377 1.714l-.088.151c-.107.187-.2.369-.293.555z" class="cls-1" data-name="Path 347"/>
                        </g>
                        <g id="Group_245" data-name="Group 245">
                            <path id="Path_348" d="M-484.434 65.351l.033-.066-.038.062-.1-.051 1.094-1.979.183.1z" class="cls-1" data-name="Path 348"/>
                        </g>
                    </g>
                    <g id="Group_247" data-name="Group 247">
                        <path id="Path_349" d="M-461.33 93.753h-28.932a1.561 1.561 0 0 1-1.166-.427 1.286 1.286 0 0 1-.364-.944l.267-9.431c.005-.125.018-.249.034-.371l.014-.134a10.8 10.8 0 0 1 2.824-6.5l.1-.1a10.157 10.157 0 0 1 2.767-2.061l.187-.091q.418-.2.857-.358l.2-.068c.259-.087.528-.163.8-.228l.618-.146.446.452a10.356 10.356 0 0 0 .791.723 10.385 10.385 0 0 0 2.294 1.441c.154.073.311.139.467.2a10 10 0 0 0 1.854.544 10.246 10.246 0 0 0 4.072-.054 1.616 1.616 0 0 1 .535-.1h.439a2.23 2.23 0 0 1 .256-.143c.156-.081.313-.162.466-.224a2.272 2.272 0 0 1 .408-.249 9.612 9.612 0 0 0 1.854-1.138l.378-.231a11.024 11.024 0 0 0 .973-.818l.446-.427.6.145a9.756 9.756 0 0 1 7.227 9.483 3.8 3.8 0 0 1 .036.518l-.267 9.431a1.351 1.351 0 0 1-1.481 1.306zm-28.17-2.262h27.421l.241-8.53a4.853 4.853 0 0 1-.036-.427 7.562 7.562 0 0 0-4.939-7.16c-.3.256-.59.477-.85.671a1.663 1.663 0 0 1-.365.221 11.464 11.464 0 0 1-2.135 1.28 2.268 2.268 0 0 1-.5.288c-.081.032-.169.08-.258.126a2.768 2.768 0 0 1-1.3.4h-.322c-.066.02-.121.036-.177.048a12.549 12.549 0 0 1-4.976.068 12.331 12.331 0 0 1-2.275-.668c-.192-.078-.38-.16-.568-.246a12.722 12.722 0 0 1-2.787-1.751c-.16-.131-.318-.268-.473-.408l-.022.006-.157.055a7.306 7.306 0 0 0-.646.27l-.65-.941.508 1.01a7.77 7.77 0 0 0-2.107 1.563l-.946-.65.83.768a8.525 8.525 0 0 0-2.23 5.128 4 4 0 0 1-.025.243 1.456 1.456 0 0 0-.016.159z" class="cls-1" data-name="Path 349"/>
                    </g>
                </g>
            </g>
            <path id="Path_350" d="M-481.613 44.85v8.35a1.055 1.055 0 0 0 1.056 1.057 1.057 1.057 0 0 0 .718-.282l6.379-5.83c.507.084 1 .14 1.507.183 2.085 4.351 7.253 7.224 13.126 7.224a17.458 17.458 0 0 0 2.633-.2l5.168 4.732a1.057 1.057 0 0 0 1.493-.056 1.059 1.059 0 0 0 .282-.719v-6.755a10.422 10.422 0 0 0 4.506-8.352c0-4.548-3.422-8.661-8.576-10.421-.662-7.041-7.957-12.534-16.9-12.534-9.337 0-16.9 6.084-16.9 13.562a12.492 12.492 0 0 0 5.508 10.041zm34.756-.648a8.449 8.449 0 0 1-4.056 6.887 1.057 1.057 0 0 0-.465.873v4.915l-3.774-3.45a1.057 1.057 0 0 0-.718-.282h-.2a15.381 15.381 0 0 1-2.817.254 12.871 12.871 0 0 1-10.632-4.972 20 20 0 0 0 11.773-4.379 13.156 13.156 0 0 0 4.225-6.943 6.315 6.315 0 0 1 .155-.817v-.169c3.96 1.507 6.509 4.661 6.509 8.081zm-23.335-20.814c8.168 0 14.815 5.14 14.815 11.449a8.908 8.908 0 0 1-.24 1.972 11.964 11.964 0 0 1-3.7 5.774 17.353 17.353 0 0 1-11.084 3.69 17.907 17.907 0 0 1-3.21-.3 1.044 1.044 0 0 0-.9.253l-4.985 4.563V44.3a1.057 1.057 0 0 0-.465-.873 10.563 10.563 0 0 1-5.041-8.591c-.005-6.308 6.642-11.448 14.81-11.448z" class="cls-1" data-name="Path 350"/>
        </g>
    </g>
</svg>
