<svg xmlns="http://www.w3.org/2000/svg" width="115" height="115" viewBox="0 0 115 115">
    <defs>
        <style>
            .cls-1,.cls-2{fill:#a27abf}.cls-2{stroke:#8559a5;stroke-miterlimit:10;stroke-width:.567px}
        </style>
    </defs>
    <g id="icone" transform="translate(178)">
        <g id="Group_333" data-name="Group 333">
            <g id="Group_331" data-name="Group 331">
                <g id="Group_330" data-name="Group 330">
                    <path id="Path_402" d="M-63 57.5A57.585 57.585 0 0 0-98.04 4.571 57.175 57.175 0 0 0-120.5 0a57.175 57.175 0 0 0-22.46 4.571A57.585 57.585 0 0 0-178 57.5a57.587 57.587 0 0 0 35.04 52.929A57.175 57.175 0 0 0-120.5 115a57.175 57.175 0 0 0 22.46-4.571A57.587 57.587 0 0 0-63 57.5zm-35.245 48.749a53.263 53.263 0 0 1-22.255 4.858 53.263 53.263 0 0 1-22.255-4.858A53.67 53.67 0 0 1-174.107 57.5a53.667 53.667 0 0 1 31.352-48.749A53.263 53.263 0 0 1-120.5 3.893 53.278 53.278 0 0 1-98.245 8.75 53.67 53.67 0 0 1-66.893 57.5a53.668 53.668 0 0 1-31.352 48.749z" class="cls-1" data-name="Path 402"/>
                </g>
            </g>
            <g id="Group_332" data-name="Group 332">
                <path id="Path_403" d="M-152.129 37.646a1.115 1.115 0 0 0-.665 1.022V41.7a1.113 1.113 0 0 0 .665 1.022l1.95.86c.089.328.185.638.292.937l-1.084 1.865a1.121 1.121 0 0 0-.009 1.106 14.815 14.815 0 0 0 1.9 2.657 1.112 1.112 0 0 0 1.082.343l2.052-.469q.359.286.748.552l.2 2.172a1.118 1.118 0 0 0 .644.911 14.182 14.182 0 0 0 3.06 1.028 1.114 1.114 0 0 0 1.076-.365l1.432-1.662h.86l1.431 1.662a1.117 1.117 0 0 0 .847.389 1.1 1.1 0 0 0 .229-.024 14.191 14.191 0 0 0 3.061-1.028 1.12 1.12 0 0 0 .644-.912l.2-2.171c.259-.176.51-.361.749-.552l2.051.469a1.111 1.111 0 0 0 1.083-.343 14.811 14.811 0 0 0 1.9-2.657 1.121 1.121 0 0 0-.008-1.106l-1.084-1.866c.107-.3.2-.608.291-.936l1.95-.86a1.116 1.116 0 0 0 .666-1.022v-3.032a1.118 1.118 0 0 0-.666-1.022l-1.95-.86a12.107 12.107 0 0 0-.291-.936l1.084-1.866a1.119 1.119 0 0 0 .008-1.1 14.811 14.811 0 0 0-1.9-2.657 1.109 1.109 0 0 0-1.083-.344l-2.051.469q-.358-.286-.749-.552l-.2-2.171a1.117 1.117 0 0 0-.644-.911 14.191 14.191 0 0 0-3.061-1.028 1.112 1.112 0 0 0-1.076.364l-1.431 1.662h-.86l-1.432-1.662a1.111 1.111 0 0 0-1.076-.364 14.182 14.182 0 0 0-3.06 1.028 1.116 1.116 0 0 0-.644.912l-.2 2.17a12.78 12.78 0 0 0-.748.552l-2.054-.474a1.108 1.108 0 0 0-1.082.344 14.815 14.815 0 0 0-1.9 2.657 1.119 1.119 0 0 0 .009 1.1l1.084 1.866c-.107.3-.2.609-.292.936zm3.353.964a1.119 1.119 0 0 0 .638-.773 10.2 10.2 0 0 1 .517-1.657 1.119 1.119 0 0 0-.066-.989l-1.022-1.762a12.665 12.665 0 0 1 .874-1.221l1.931.442a1.115 1.115 0 0 0 .99-.251 10.19 10.19 0 0 1 1.37-1.014 1.116 1.116 0 0 0 .524-.848l.188-2.05a12.405 12.405 0 0 1 1.366-.464l1.321 1.534a1.119 1.119 0 0 0 .847.389h1.883a1.115 1.115 0 0 0 .847-.389l1.322-1.534a12.493 12.493 0 0 1 1.367.464l.188 2.052a1.118 1.118 0 0 0 .523.847A9.974 9.974 0 0 1-131.8 32.4a1.11 1.11 0 0 0 .989.251l1.932-.442a12.662 12.662 0 0 1 .879 1.22l-1.023 1.762a1.122 1.122 0 0 0-.065.989 10.2 10.2 0 0 1 .517 1.657 1.122 1.122 0 0 0 .637.773l1.784.786v1.58l-1.784.787a1.12 1.12 0 0 0-.637.772 10.207 10.207 0 0 1-.517 1.658 1.122 1.122 0 0 0 .065.989l1.023 1.762a12.787 12.787 0 0 1-.874 1.221l-1.932-.442a1.1 1.1 0 0 0-.989.251 10.213 10.213 0 0 1-1.371 1.013 1.119 1.119 0 0 0-.524.848l-.187 2.051a12.4 12.4 0 0 1-1.366.463l-1.322-1.534a1.118 1.118 0 0 0-.847-.388h-1.888a1.121 1.121 0 0 0-.847.388l-1.321 1.534a12.416 12.416 0 0 1-1.367-.463l-.188-2.053a1.118 1.118 0 0 0-.524-.847 10.1 10.1 0 0 1-1.369-1.012 1.109 1.109 0 0 0-.99-.251l-1.931.442a12.79 12.79 0 0 1-.874-1.221l1.022-1.762a1.119 1.119 0 0 0 .066-.989 10.228 10.228 0 0 1-.517-1.657 1.119 1.119 0 0 0-.638-.773l-1.784-.787V39.4z" class="cls-2" data-name="Path 403"/>
                <path id="Path_404" d="M-138.356 48.008a7.822 7.822 0 0 0 7.821-7.822 7.822 7.822 0 0 0-7.821-7.821 7.822 7.822 0 0 0-7.822 7.821 7.832 7.832 0 0 0 7.822 7.822zm0-13.408a5.586 5.586 0 0 1 5.586 5.586 5.586 5.586 0 0 1-5.586 5.587 5.586 5.586 0 0 1-5.587-5.587 5.593 5.593 0 0 1 5.587-5.586z" class="cls-2" data-name="Path 404"/>
                <path id="Path_405" d="M-109.684 35.665a1.116 1.116 0 0 0-.667 1.022v2.529a1.119 1.119 0 0 0 .667 1.023l1.543.68c.06.216.125.424.195.626l-.86 1.482a1.121 1.121 0 0 0-.008 1.106 12.62 12.62 0 0 0 1.608 2.247 1.11 1.11 0 0 0 1.082.343l1.622-.372c.159.126.324.247.492.364l.157 1.721a1.116 1.116 0 0 0 .644.913 12.076 12.076 0 0 0 2.591.869 1.111 1.111 0 0 0 1.076-.364l1.137-1.32h.546l1.137 1.32a1.111 1.111 0 0 0 .847.388 1.106 1.106 0 0 0 .229-.024 12.076 12.076 0 0 0 2.591-.869 1.114 1.114 0 0 0 .644-.913l.157-1.721q.252-.176.491-.363l1.624.371a1.112 1.112 0 0 0 1.081-.343 12.676 12.676 0 0 0 1.609-2.247 1.121 1.121 0 0 0-.009-1.106l-.86-1.482c.07-.2.135-.409.195-.625l1.543-.681a1.119 1.119 0 0 0 .667-1.023v-2.529a1.115 1.115 0 0 0-.667-1.022l-1.543-.681c-.06-.216-.125-.424-.195-.626l.86-1.481a1.123 1.123 0 0 0 .008-1.107 12.62 12.62 0 0 0-1.608-2.247 1.107 1.107 0 0 0-1.081-.343l-1.624.371a11.322 11.322 0 0 0-.491-.363l-.157-1.721a1.118 1.118 0 0 0-.644-.913 12.131 12.131 0 0 0-2.591-.869 1.111 1.111 0 0 0-1.076.364l-1.137 1.321h-.541l-1.137-1.321a1.106 1.106 0 0 0-1.076-.364 12.131 12.131 0 0 0-2.591.869 1.118 1.118 0 0 0-.644.913l-.157 1.722q-.252.174-.491.362l-1.624-.371a1.111 1.111 0 0 0-1.081.344 12.493 12.493 0 0 0-1.607 2.247 1.121 1.121 0 0 0 .008 1.106l.859 1.48q-.1.3-.195.627zm1.568 1.75l1.376-.607a1.111 1.111 0 0 0 .638-.775 8.272 8.272 0 0 1 .422-1.349 1.119 1.119 0 0 0-.066-.989l-.794-1.371c.179-.278.373-.551.581-.815l1.5.343a1.11 1.11 0 0 0 .988-.251 8.314 8.314 0 0 1 1.115-.824 1.116 1.116 0 0 0 .526-.849l.145-1.595q.45-.177.9-.305l1.024 1.188a1.117 1.117 0 0 0 .846.388h1.57a1.117 1.117 0 0 0 .846-.388l1.024-1.188q.45.128.9.305l.145 1.595a1.119 1.119 0 0 0 .526.849 8.314 8.314 0 0 1 1.115.824 1.11 1.11 0 0 0 .988.251l1.5-.343q.312.4.583.817l-.8 1.37a1.121 1.121 0 0 0-.065.99 8.344 8.344 0 0 1 .421 1.347 1.113 1.113 0 0 0 .638.775l1.376.607v1.073l-1.376.607a1.113 1.113 0 0 0-.638.775 8.344 8.344 0 0 1-.421 1.347 1.121 1.121 0 0 0 .065.99l.8 1.371q-.271.418-.583.816l-1.5-.343a1.108 1.108 0 0 0-.988.251 8.314 8.314 0 0 1-1.115.824 1.121 1.121 0 0 0-.526.849l-.145 1.6c-.3.118-.6.221-.9.306l-1.025-1.194a1.117 1.117 0 0 0-.846-.388h-1.569a1.118 1.118 0 0 0-.847.388l-1.024 1.189c-.3-.085-.6-.188-.9-.306l-.145-1.6a1.118 1.118 0 0 0-.526-.849 8.157 8.157 0 0 1-1.114-.824 1.125 1.125 0 0 0-.99-.252l-1.5.343c-.208-.263-.4-.536-.582-.815l.795-1.371a1.117 1.117 0 0 0 .065-.99 8.344 8.344 0 0 1-.421-1.347 1.111 1.111 0 0 0-.638-.775l-1.376-.607z" class="cls-2" data-name="Path 405"/>
                <path id="Path_406" d="M-98.132 43.538a5.586 5.586 0 0 0 5.587-5.586 5.587 5.587 0 0 0-5.587-5.587 5.587 5.587 0 0 0-5.587 5.587 5.593 5.593 0 0 0 5.587 5.586zm0-8.938a3.352 3.352 0 0 1 3.352 3.352 3.352 3.352 0 0 1-3.352 3.348 3.352 3.352 0 0 1-3.352-3.352 3.356 3.356 0 0 1 3.352-3.348z" class="cls-2" data-name="Path 406"/>
                <path id="Path_407" d="M-100.7 92.574a1.118 1.118 0 0 0 1.093-.887l.341-1.62c.28-.066.56-.142.839-.226l1.113 1.242a1.115 1.115 0 0 0 1.27.283 16.815 16.815 0 0 0 3.516-2.053 1.118 1.118 0 0 0 .389-1.241l-.513-1.562c.211-.2.417-.4.616-.615l1.56.513a1.121 1.121 0 0 0 1.241-.389 16.732 16.732 0 0 0 2.058-3.519 1.117 1.117 0 0 0-.282-1.27l-1.241-1.111c.085-.278.16-.558.227-.839l1.619-.34a1.118 1.118 0 0 0 .887-1.094v-3.81a1.117 1.117 0 0 0-.887-1.093l-1.619-.341c-.067-.28-.142-.561-.226-.839l1.242-1.113a1.117 1.117 0 0 0 .282-1.27 16.811 16.811 0 0 0-2.052-3.516 1.122 1.122 0 0 0-1.242-.389l-1.561.513q-.3-.316-.616-.616l.513-1.56a1.119 1.119 0 0 0-.388-1.241 16.783 16.783 0 0 0-3.517-2.054 1.122 1.122 0 0 0-1.27.282l-1.113 1.243c-.278-.085-.559-.16-.839-.227l-.34-1.615a1.117 1.117 0 0 0-1.093-.887h-3.81a1.118 1.118 0 0 0-1.094.887l-.34 1.619q-.421.1-.839.226l-1.113-1.242a1.122 1.122 0 0 0-1.27-.282 16.786 16.786 0 0 0-3.516 2.052 1.119 1.119 0 0 0-.39 1.242l.513 1.561c-.21.2-.417.4-.615.616l-1.561-.513a1.123 1.123 0 0 0-1.24.388 16.694 16.694 0 0 0-2.055 3.517 1.116 1.116 0 0 0 .283 1.27l1.243 1.113c-.086.278-.161.559-.227.839l-1.62.341a1.117 1.117 0 0 0-.887 1.093v3.81a1.118 1.118 0 0 0 .887 1.094l1.62.34c.066.281.142.561.225.839l-1.241 1.113a1.116 1.116 0 0 0-.283 1.27 16.747 16.747 0 0 0 2.053 3.516 1.121 1.121 0 0 0 1.241.39l1.562-.513c.2.21.4.416.615.615l-.513 1.56a1.117 1.117 0 0 0 .389 1.241 16.693 16.693 0 0 0 3.517 2.055 1.114 1.114 0 0 0 1.27-.283l1.113-1.243q.417.128.839.227l.34 1.62a1.119 1.119 0 0 0 1.094.887zm-6.051-5.075a1.124 1.124 0 0 0-1.21.306l-1.049 1.172a14.524 14.524 0 0 1-1.683-.987l.486-1.477a1.119 1.119 0 0 0-.34-1.2 12.214 12.214 0 0 1-1.43-1.429 1.123 1.123 0 0 0-1.2-.339l-1.475.486a14.609 14.609 0 0 1-.987-1.683l1.172-1.051a1.117 1.117 0 0 0 .306-1.211 12.09 12.09 0 0 1-.525-1.945 1.116 1.116 0 0 0-.869-.895l-1.446-.3v-2l1.446-.305a1.114 1.114 0 0 0 .869-.894 12.23 12.23 0 0 1 .525-1.948 1.116 1.116 0 0 0-.306-1.21l-1.172-1.05a14.6 14.6 0 0 1 .987-1.682l1.477.485a1.123 1.123 0 0 0 1.2-.339 12.223 12.223 0 0 1 1.429-1.431 1.119 1.119 0 0 0 .339-1.2l-.486-1.475a14.391 14.391 0 0 1 1.683-.988l1.05 1.172a1.122 1.122 0 0 0 1.212.307 11.988 11.988 0 0 1 1.945-.525 1.118 1.118 0 0 0 .9-.87l.3-1.446h2l.305 1.446a1.117 1.117 0 0 0 .894.87 12.153 12.153 0 0 1 1.948.525 1.118 1.118 0 0 0 1.21-.307L-96.2 62.9a14.749 14.749 0 0 1 1.682.988L-95 65.369a1.118 1.118 0 0 0 .339 1.2A12.31 12.31 0 0 1-93.229 68a1.126 1.126 0 0 0 1.2.338l1.475-.485a14.749 14.749 0 0 1 .988 1.682l-1.172 1.051a1.119 1.119 0 0 0-.307 1.211 12.028 12.028 0 0 1 .525 1.946 1.117 1.117 0 0 0 .87.894l1.445.305v2l-1.445.3a1.118 1.118 0 0 0-.87.895 12.143 12.143 0 0 1-.525 1.947 1.118 1.118 0 0 0 .307 1.211l1.172 1.049a14.762 14.762 0 0 1-.988 1.683l-1.476-.486a1.122 1.122 0 0 0-1.2.34 12.215 12.215 0 0 1-1.429 1.43 1.119 1.119 0 0 0-.338 1.2l.485 1.476a14.6 14.6 0 0 1-1.682.987l-1.051-1.172a1.122 1.122 0 0 0-1.211-.306 12.131 12.131 0 0 1-1.946.525 1.114 1.114 0 0 0-.894.869l-.305 1.446h-2l-.3-1.446a1.116 1.116 0 0 0-.9-.869 12.26 12.26 0 0 1-1.948-.525z" class="cls-2" data-name="Path 407"/>
                <path id="Path_408" d="M-92.545 75.941A10.056 10.056 0 0 0-102.6 65.885a10.056 10.056 0 0 0-10.056 10.056A10.056 10.056 0 0 0-102.6 86a10.067 10.067 0 0 0 10.055-10.059zm-17.878 0a7.822 7.822 0 0 1 7.823-7.821 7.822 7.822 0 0 1 7.821 7.821 7.822 7.822 0 0 1-7.821 7.822 7.832 7.832 0 0 1-7.823-7.822z" class="cls-2" data-name="Path 408"/>
                <path id="Rectangle_226" d="M0 0h8.939v2.235H0z" class="cls-2" data-name="Rectangle 226" transform="translate(-121.596 37.952)"/>
                <path id="Path_409" d="M-122.274 73.8l-7.821-3.352a1.117 1.117 0 0 0-1.467.586 1.129 1.129 0 0 0-.09.441v2.234h-13.408v-17.88h-2.235v18.995a1.116 1.116 0 0 0 1.116 1.117h14.527v2.235a1.115 1.115 0 0 0 1.116 1.117 1.093 1.093 0 0 0 .44-.09l7.821-3.352a1.118 1.118 0 0 0 .588-1.466 1.119 1.119 0 0 0-.588-.588zm-7.143 2.684v-3.318l3.867 1.658z" class="cls-2" data-name="Path 409"/>
                <path id="Path_410" d="M-98.991 71.873l-4.8 5.765-2.487-2.487-1.58 1.58 3.352 3.352a1.117 1.117 0 0 0 .79.328.434.434 0 0 0 .051 0 1.118 1.118 0 0 0 .808-.4l5.587-6.7z" class="cls-2" data-name="Path 410"/>
            </g>
        </g>
    </g>
</svg>
