<svg xmlns="http://www.w3.org/2000/svg" id="icone" width="115" height="115" viewBox="0 0 115 115">
    <defs>
        <style>
            .cls-1{fill:#ff6161}.cls-2{fill:none;stroke:#ff6161;stroke-miterlimit:10;stroke-width:2.268px}
        </style>
    </defs>
    <g id="Group_315" data-name="Group 315">
        <g id="Group_313" data-name="Group 313">
            <g id="Group_312" data-name="Group 312">
                <path id="Path_384" d="M57.5 115A57.5 57.5 0 1 1 115 57.5 57.565 57.565 0 0 1 57.5 115zm0-111.107A53.607 53.607 0 1 0 111.107 57.5 53.668 53.668 0 0 0 57.5 3.893z" class="cls-1" data-name="Path 384"/>
            </g>
        </g>
        <g id="Group_314" data-name="Group 314">
            <path id="Path_385" d="M79 48.908a1.036 1.036 0 0 0-.383-1.932l-3.7-1.239a1.872 1.872 0 0 1-1.158-2.482l1.429-3.635c.4-1.018-.157-1.71-1.236-1.534l-3.856.624a1.873 1.873 0 0 1-2.18-1.659l-.424-3.884c-.118-1.088-.931-1.44-1.806-.783l-3.128 2.346a1.874 1.874 0 0 1-2.7-.458l-2.18-3.242a1.036 1.036 0 0 0-1.964.147l-1.678 3.528a1.872 1.872 0 0 1-2.6.85L47.995 33.7c-.962-.521-1.714-.05-1.672 1.042l.156 3.9a1.873 1.873 0 0 1-1.911 1.963l-3.905-.047c-1.094-.014-1.542.751-1 1.7l1.952 3.385a1.874 1.874 0 0 1-.779 2.627l-3.48 1.771a1.037 1.037 0 0 0-.093 1.968l3.3 2.089a1.875 1.875 0 0 1 .531 2.689l-2.254 3.188c-.632.893-.258 1.7.834 1.784l3.893.316a1.874 1.874 0 0 1 1.719 2.134l-.518 3.872c-.145 1.084.56 1.621 1.568 1.194l3.594-1.53a1.874 1.874 0 0 1 2.514 1.09l1.34 3.669a1.036 1.036 0 0 0 1.941.328l2.475-3.025a1.874 1.874 0 0 1 2.732-.2l2.892 2.627c.81.736 1.653.459 1.872-.612l.783-3.828a1.873 1.873 0 0 1 2.321-1.451l3.78.98c1.061.274 1.679-.361 1.374-1.412l-1.085-3.752a1.874 1.874 0 0 1 1.386-2.364l3.8-.89c1.066-.248 1.318-1.1.56-1.886L75.916 54.2a1.874 1.874 0 0 1 .128-2.737z" class="cls-2" data-name="Path 385"/>
            <path id="Path_386" d="M74.257 63.429l1.085 3.752c.3 1.051-.315 1.686-1.374 1.411l-3.78-.981a1.874 1.874 0 0 0-2.325 1.45l-.674 3.289 11.059 12.26.876-7.472 7.695-.257-12.637-14.014a1.892 1.892 0 0 0 .075.562z" class="cls-2" data-name="Path 386"/>
            <path id="Path_387" d="M48.544 69.246l-3.594 1.529c-1.008.429-1.713-.108-1.568-1.194l.519-3.872a1.874 1.874 0 0 0-1.72-2.132l-.56-.046-13.44 12.122 7.472.876.257 7.694 15.21-13.717-.062-.171a1.874 1.874 0 0 0-2.514-1.089z" class="cls-2" data-name="Path 387"/>
        </g>
    </g>
</svg>
