<svg xmlns="http://www.w3.org/2000/svg" width="115" height="115" viewBox="0 0 115 115">
    <defs>
        <style>
            .cls-1{fill:#ff6161}
        </style>
    </defs>
    <g id="icone" transform="translate(886 1.5)">
        <g id="Group_291" data-name="Group 291">
            <g id="Group_290" data-name="Group 290">
                <g id="Group_289" data-name="Group 289">
                    <g id="Group_288" data-name="Group 288">
                        <g id="Group_285" data-name="Group 285">
                            <g id="Group_284" data-name="Group 284">
                                <path id="Path_374" d="M-828.5 113.5A57.565 57.565 0 0 1-886 56a57.565 57.565 0 0 1 57.5-57.5A57.565 57.565 0 0 1-771 56a57.565 57.565 0 0 1-57.5 57.5zm0-111.107A53.668 53.668 0 0 0-882.107 56a53.668 53.668 0 0 0 53.607 53.607A53.668 53.668 0 0 0-774.893 56 53.668 53.668 0 0 0-828.5 2.393z" class="cls-1" data-name="Path 374"/>
                            </g>
                        </g>
                        <g id="Group_287" data-name="Group 287">
                            <g id="Group_286" data-name="Group 286">
                                <path id="Path_375" d="M-801.265 46.581a3.793 3.793 0 0 0-3.795 3.785 3.8 3.8 0 0 0 3.795 3.788 3.794 3.794 0 0 0 3.787-3.788 3.792 3.792 0 0 0-3.787-3.785zm-54.462 0a3.794 3.794 0 0 0-3.8 3.785 3.8 3.8 0 0 0 3.8 3.788 3.8 3.8 0 0 0 3.789-3.788 3.793 3.793 0 0 0-3.789-3.785zm43.191-6.891a5.638 5.638 0 0 0-5.634 5.641 5.634 5.634 0 0 0 5.634 5.628 5.641 5.641 0 0 0 5.642-5.628 5.652 5.652 0 0 0-5.642-5.641zm17.493 34.282h-6.423V62.149a11.032 11.032 0 0 0-1.556-5.559 6.205 6.205 0 0 1 1.757-.284 6.238 6.238 0 0 1 6.222 6.23zM-844.46 39.69a5.646 5.646 0 0 0-5.643 5.641 5.642 5.642 0 0 0 5.643 5.628 5.639 5.639 0 0 0 5.633-5.628 5.646 5.646 0 0 0-5.633-5.641zm-11.267 16.616a6.161 6.161 0 0 1 1.748.284 10.922 10.922 0 0 0-1.555 5.559v11.823h-6.423V62.536a6.239 6.239 0 0 1 6.23-6.23zm27.222-27.883a8.347 8.347 0 0 0-8.337 8.334 8.349 8.349 0 0 0 8.337 8.34 8.349 8.349 0 0 0 8.338-8.34 8.343 8.343 0 0 0-8.338-8.334zm24.974 49.949h-9.842V60.383a14.883 14.883 0 0 0-1.709-6.836 8.89 8.89 0 0 1 2.537-.408 9.022 9.022 0 0 1 9.014 9.01zm-40.109-17.989v17.989h-9.831V62.149a9.022 9.022 0 0 1 9.015-9.01 8.8 8.8 0 0 1 2.526.408 14.909 14.909 0 0 0-1.71 6.836zm2.065 23.194h26.137V60.383a13.086 13.086 0 0 0-13.067-13.069 13.081 13.081 0 0 0-13.07 13.069z" class="cls-1" data-name="Path 375"/>
                            </g>
                        </g>
                    </g>
                </g>
            </g>
        </g>
    </g>
</svg>
