<svg xmlns="http://www.w3.org/2000/svg" width="115" height="115" viewBox="0 0 115 115">
    <defs>
        <style>
            .cls-1,.cls-2{fill:#77b5ed}.cls-2{fill-rule:evenodd}
        </style>
    </defs>
    <g id="icone" transform="translate(354)">
        <g id="Group_252" data-name="Group 252">
            <g id="Group_251" data-name="Group 251">
                <path id="Path_351" d="M-239 57.5a57.585 57.585 0 0 0-35.04-52.929A57.175 57.175 0 0 0-296.5 0a57.175 57.175 0 0 0-22.46 4.571A57.585 57.585 0 0 0-354 57.5a57.587 57.587 0 0 0 35.04 52.929A57.175 57.175 0 0 0-296.5 115a57.175 57.175 0 0 0 22.46-4.571A57.587 57.587 0 0 0-239 57.5zm-35.245 48.749a53.263 53.263 0 0 1-22.255 4.858 53.263 53.263 0 0 1-22.255-4.858A53.67 53.67 0 0 1-350.107 57.5a53.667 53.667 0 0 1 31.352-48.749A53.263 53.263 0 0 1-296.5 3.893a53.278 53.278 0 0 1 22.255 4.857 53.67 53.67 0 0 1 31.352 48.75 53.668 53.668 0 0 1-31.352 48.749z" class="cls-1" data-name="Path 351"/>
            </g>
        </g>
        <g id="Group_266" data-name="Group 266">
            <path id="Path_352" d="M-291.415 18.534l.931.385a.08.08 0 0 0 .032.007.072.072 0 0 0 .028-.01l2-1.034a1.323 1.323 0 0 1 .81-.133 1.323 1.323 0 0 1 .732.373l2.088 2.088a1.326 1.326 0 0 1 .373.734 1.32 1.32 0 0 1-.133.811l-1.034 2a.072.072 0 0 0-.01.028.072.072 0 0 0 .008.034l.4.962a.052.052 0 0 0 .016.025.059.059 0 0 0 .026.014l2.146.686a1.325 1.325 0 0 1 .669.478 1.319 1.319 0 0 1 .255.783v2.947a1.32 1.32 0 0 1-.255.781 1.321 1.321 0 0 1-.67.478l-2.146.685a.06.06 0 0 0-.027.015.086.086 0 0 0-.016.027l-.4.959a.074.074 0 0 0-.008.034.094.094 0 0 0 .01.028l1.034 2a1.316 1.316 0 0 1 .133.81 1.325 1.325 0 0 1-.373.735l-2.088 2.088a1.325 1.325 0 0 1-.734.373 1.328 1.328 0 0 1-.811-.133l-2-1.034a.08.08 0 0 0-.028-.011.086.086 0 0 0-.034.008l-.962.4a.083.083 0 0 0-.025.017.058.058 0 0 0-.014.026l-.686 2.149a1.32 1.32 0 0 1-.48.667 1.317 1.317 0 0 1-.781.255h-2.946a1.318 1.318 0 0 1-.781-.255 1.309 1.309 0 0 1-.48-.667l-.686-2.149a.058.058 0 0 0-.014-.026.091.091 0 0 0-.028-.017l-.959-.4a.086.086 0 0 0-.034-.008.08.08 0 0 0-.028.011l-2 1.034a1.323 1.323 0 0 1-.81.133 1.319 1.319 0 0 1-.734-.373l-2.089-2.088-.043-.048a1.318 1.318 0 0 1-.329-.686 1.318 1.318 0 0 1 .133-.811l1.034-2a.1.1 0 0 0 .01-.028.074.074 0 0 0-.008-.034l-.4-.961a.068.068 0 0 0-.016-.026.072.072 0 0 0-.026-.014l-2.147-.686a1.32 1.32 0 0 1-.67-.477l-.033-.051a1.316 1.316 0 0 1-.222-.733v-2.941a1.318 1.318 0 0 1 .255-.781 1.321 1.321 0 0 1 .67-.478l2.145-.685a.117.117 0 0 0 .028-.015.1.1 0 0 0 .016-.025l.4-.962a.072.072 0 0 0 .008-.034.072.072 0 0 0-.01-.028l-1.034-2a1.319 1.319 0 0 1-.133-.811 1.321 1.321 0 0 1 .374-.733l2.089-2.088a1.319 1.319 0 0 1 .734-.373 1.323 1.323 0 0 1 .81.133l2 1.034a.072.072 0 0 0 .028.01.074.074 0 0 0 .032-.007l.975-.405.014-.01a.086.086 0 0 0 .015-.029c.242-.7.464-1.438.686-2.146a1.32 1.32 0 0 1 .479-.668 1.324 1.324 0 0 1 .781-.255h2.946a1.324 1.324 0 0 1 .781.255 1.326 1.326 0 0 1 .481.667l.685 2.15a.061.061 0 0 0 .015.026.07.07 0 0 0 .027.016l.03.014zm-3.492 15.5a5.777 5.777 0 0 0 4.1-1.7 5.777 5.777 0 0 0 1.7-4.095 5.772 5.772 0 0 0-1.7-4.094 5.773 5.773 0 0 0-4.1-1.7 5.773 5.773 0 0 0-4.1 1.7 5.772 5.772 0 0 0-1.695 4.094A5.777 5.777 0 0 0-299 32.336a5.777 5.777 0 0 0 4.1 1.7zm4.983-.808a7.025 7.025 0 0 0 2.064-4.983 7.029 7.029 0 0 0-2.064-4.983 7.026 7.026 0 0 0-4.983-2.064 7.024 7.024 0 0 0-4.983 2.065 7.025 7.025 0 0 0-2.064 4.982 7.026 7.026 0 0 0 2.064 4.983 7.027 7.027 0 0 0 4.983 2.064 7.026 7.026 0 0 0 4.983-2.064zm-1.04-13.148l-.962-.4a1.317 1.317 0 0 1-.469-.325 1.31 1.31 0 0 1-.284-.5l-.686-2.144a.077.077 0 0 0-.024-.039.082.082 0 0 0-.045-.009h-2.946a.082.082 0 0 0-.045.009.084.084 0 0 0-.024.039l-.685 2.147a1.317 1.317 0 0 1-.285.5 1.317 1.317 0 0 1-.43.307l-.039.018-.964.4a1.313 1.313 0 0 1-.559.1 1.326 1.326 0 0 1-.553-.148l-2-1.034a.074.074 0 0 0-.045-.01.067.067 0 0 0-.037.024l-2.088 2.088a.071.071 0 0 0-.021.037.076.076 0 0 0 .01.046l1.034 2a1.33 1.33 0 0 1 .148.553 1.319 1.319 0 0 1-.1.559l-.4.962a1.324 1.324 0 0 1-.325.471 1.325 1.325 0 0 1-.495.285l-2.149.685a.076.076 0 0 0-.037.026.077.077 0 0 0-.009.043v2.946a.094.094 0 0 0 0 .037v.006a.076.076 0 0 0 .037.026l2.146.685a1.328 1.328 0 0 1 .5.285 1.324 1.324 0 0 1 .325.471l.4.962a1.319 1.319 0 0 1 .1.559 1.326 1.326 0 0 1-.148.553l-1.034 2a.074.074 0 0 0-.01.045.057.057 0 0 0 .01.025l2.1 2.1a.081.081 0 0 0 .037.024.082.082 0 0 0 .045-.01l2-1.034a1.3 1.3 0 0 1 .553-.148 1.313 1.313 0 0 1 .559.1l.964.4a1.3 1.3 0 0 1 .469.326 1.3 1.3 0 0 1 .285.5l.685 2.144a.073.073 0 0 0 .024.039.08.08 0 0 0 .045.01h2.946a.08.08 0 0 0 .045-.01.079.079 0 0 0 .024-.039l.685-2.144a1.3 1.3 0 0 1 .285-.5 1.326 1.326 0 0 1 .471-.326l.962-.4a1.313 1.313 0 0 1 .559-.1 1.3 1.3 0 0 1 .553.148l2 1.034a.087.087 0 0 0 .046.01.081.081 0 0 0 .037-.024l2.088-2.089a.067.067 0 0 0 .024-.037.074.074 0 0 0-.01-.045l-1.034-2a1.326 1.326 0 0 1-.148-.553 1.3 1.3 0 0 1 .1-.559l.4-.964a1.32 1.32 0 0 1 .326-.469 1.3 1.3 0 0 1 .5-.284l2.146-.686a.076.076 0 0 0 .037-.026.066.066 0 0 0 .01-.042v-2.946a.074.074 0 0 0-.01-.042.074.074 0 0 0-.037-.024l-2.146-.685a1.314 1.314 0 0 1-.5-.284 1.33 1.33 0 0 1-.326-.472l-.4-.962a1.3 1.3 0 0 1-.1-.559 1.33 1.33 0 0 1 .148-.553l1.034-2a.076.076 0 0 0 .01-.046.075.075 0 0 0-.024-.037l-2.088-2.088a.072.072 0 0 0-.038-.023.073.073 0 0 0-.045.01l-2 1.034a1.322 1.322 0 0 1-.553.148 1.3 1.3 0 0 1-.561-.1zm-3.943 5.027a3.127 3.127 0 0 0-2.219.919 3.124 3.124 0 0 0-.919 2.216 3.127 3.127 0 0 0 .919 2.219 3.129 3.129 0 0 0 2.219.919 3.129 3.129 0 0 0 2.182-.884l.037-.035a3.127 3.127 0 0 0 .919-2.219 3.129 3.129 0 0 0-.919-2.219 3.129 3.129 0 0 0-2.219-.919zm1.331 1.807a1.879 1.879 0 0 0-1.331-.551 1.877 1.877 0 0 0-1.331.551 1.881 1.881 0 0 0-.55 1.332 1.877 1.877 0 0 0 .551 1.331 1.879 1.879 0 0 0 1.331.551 1.88 1.88 0 0 0 1.306-.526l.026-.028a1.877 1.877 0 0 0 .551-1.331 1.881 1.881 0 0 0-.553-1.331z" class="cls-2" data-name="Path 352"/>
            <g id="Group_253" data-name="Group 253">
                <path id="Path_353" d="M-294.907 86.078q-1.09 0-2.162-.076l.105-1.467a29.517 29.517 0 0 0 4.174-.006l.111 1.467q-1.103.081-2.228.082zM-321.386 69.7A28.623 28.623 0 0 1-323 65.667l1.422-.436a27.136 27.136 0 0 0 1.531 3.828zm52.983-.05l-1.344-.637a27.219 27.219 0 0 0 1.524-3.832l1.425.43a28.672 28.672 0 0 1-1.602 4.038zm-55.578-8.207a29.1 29.1 0 0 1-.332-4.321h1.489a27.377 27.377 0 0 0 .317 4.1zm58.157-.059l-1.474-.218a27.361 27.361 0 0 0 .308-4.1l1.489-.116v.116a29.08 29.08 0 0 1-.323 4.317zm-56.7-8.368L-324 52.8a28.745 28.745 0 0 1 .964-4.229l1.425.431a27.117 27.117 0 0 0-.913 4.013zm55.21-.168a27.4 27.4 0 0 0-.941-4.009l1.422-.439a28.66 28.66 0 0 1 .99 4.224zm-52.779-7.68l-1.344-.637a29.122 29.122 0 0 1 2.193-3.758l1.233.827a27.26 27.26 0 0 0-2.082 3.567zm50.3-.152a27.64 27.64 0 0 0-2.1-3.552l1.227-.835a28.931 28.931 0 0 1 2.213 3.741zm-45.626-6.639l-1.093-1a29.374 29.374 0 0 1 3.213-2.957l.931 1.148a28.017 28.017 0 0 0-3.051 2.808zm40.912-.12a27.888 27.888 0 0 0-3.068-2.789l.925-1.154a29.532 29.532 0 0 1 3.23 2.939zm-34.424-5.017l-.75-1.271a29.146 29.146 0 0 1 3.95-1.893l.547 1.368a27.57 27.57 0 0 0-3.747 1.795zm27.9-.083a27.88 27.88 0 0 0-3.763-1.775l.538-1.372a29.41 29.41 0 0 1 3.967 1.873z" class="cls-1" data-name="Path 353"/>
            </g>
            <g id="Group_265" data-name="Group 265">
                <g id="Group_254" data-name="Group 254">
                    <path id="Path_354" d="M-305.842 87.741h-14.581a1.821 1.821 0 0 1-1.822-1.823v-21.87a1.821 1.821 0 0 1 1.822-1.823h14.581a1.821 1.821 0 0 1 1.822 1.823v21.87a1.821 1.821 0 0 1-1.822 1.823zM-318.6 84.1h10.935V65.87H-318.6z" class="cls-1" data-name="Path 354"/>
                </g>
                <g id="Group_255" data-name="Group 255">
                    <path id="Rectangle_211" d="M0 0h3.645v3.645H0z" class="cls-1" data-name="Rectangle 211" transform="translate(-314.955 69.515)"/>
                </g>
                <g id="Group_256" data-name="Group 256">
                    <path id="Path_355" d="M-283.972 87.741h-21.87a1.821 1.821 0 0 1-1.823-1.823V54.935a1.822 1.822 0 0 1 1.823-1.823h21.87a1.822 1.822 0 0 1 1.823 1.823v30.983a1.821 1.821 0 0 1-1.823 1.823zM-304.02 84.1h18.226V56.757h-18.226z" class="cls-1" data-name="Path 355"/>
                </g>
                <g id="Group_257" data-name="Group 257">
                    <path id="Path_356" d="M-291.262 87.741h-7.29a1.822 1.822 0 0 1-1.823-1.823v-9.112a1.822 1.822 0 0 1 1.823-1.823h7.29a1.821 1.821 0 0 1 1.823 1.823v9.112a1.821 1.821 0 0 1-1.823 1.823zm-5.468-3.641h3.646v-5.472h-3.646z" class="cls-1" data-name="Path 356"/>
                </g>
                <g id="Group_258" data-name="Group 258">
                    <path id="Rectangle_212" d="M0 0h3.645v3.645H0z" class="cls-1" data-name="Rectangle 212" transform="translate(-300.375 60.403)"/>
                </g>
                <g id="Group_259" data-name="Group 259">
                    <path id="Rectangle_213" d="M0 0h3.645v3.645H0z" class="cls-1" data-name="Rectangle 213" transform="translate(-293.084 60.403)"/>
                </g>
                <g id="Group_260" data-name="Group 260">
                    <path id="Path_357" d="M-269.391 87.741h-14.581a1.821 1.821 0 0 1-1.822-1.823v-21.87a1.821 1.821 0 0 1 1.822-1.823h14.581a1.822 1.822 0 0 1 1.823 1.823v21.87a1.822 1.822 0 0 1-1.823 1.823zm-12.758-3.641h10.935V65.87h-10.935z" class="cls-1" data-name="Path 357"/>
                </g>
                <g id="Group_261" data-name="Group 261">
                    <path id="Rectangle_214" d="M0 0h3.645v3.645H0z" class="cls-1" data-name="Rectangle 214" transform="translate(-278.504 69.515)"/>
                </g>
                <g id="Group_262" data-name="Group 262">
                    <path id="Rectangle_215" d="M0 0h3.645v3.645H0z" class="cls-1" data-name="Rectangle 215" transform="translate(-300.375 67.693)"/>
                </g>
                <g id="Group_263" data-name="Group 263">
                    <path id="Rectangle_216" d="M0 0h3.645v3.645H0z" class="cls-1" data-name="Rectangle 216" transform="translate(-293.084 67.693)"/>
                </g>
                <g id="Group_264" data-name="Group 264">
                    <path id="Path_358" d="M-269.391 87.741h-14.581a1.821 1.821 0 0 1-1.822-1.823v-21.87a1.821 1.821 0 0 1 1.822-1.823h14.581a1.822 1.822 0 0 1 1.823 1.823v21.87a1.822 1.822 0 0 1-1.823 1.823zm-12.758-3.641h10.935V65.87h-10.935z" class="cls-1" data-name="Path 358"/>
                </g>
            </g>
        </g>
    </g>
</svg>
