<svg xmlns="http://www.w3.org/2000/svg" width="115" height="115" viewBox="0 0 115 115">
    <defs>
        <style>
            .cls-1{fill:#a27abf}
        </style>
    </defs>
    <g id="icone" transform="translate(718)">
        <g id="Group_321" data-name="Group 321">
            <g id="Group_319" data-name="Group 319">
                <path id="Path_390" d="M-603 57.5a57.585 57.585 0 0 0-35.04-52.929A57.175 57.175 0 0 0-660.5 0a57.175 57.175 0 0 0-22.46 4.571A57.585 57.585 0 0 0-718 57.5a57.587 57.587 0 0 0 35.04 52.929A57.175 57.175 0 0 0-660.5 115a57.175 57.175 0 0 0 22.46-4.571A57.587 57.587 0 0 0-603 57.5zm-35.245 48.749a53.263 53.263 0 0 1-22.255 4.858 53.263 53.263 0 0 1-22.255-4.858A53.67 53.67 0 0 1-714.107 57.5a53.667 53.667 0 0 1 31.352-48.749A53.263 53.263 0 0 1-660.5 3.893a53.278 53.278 0 0 1 22.255 4.857 53.67 53.67 0 0 1 31.352 48.75 53.669 53.669 0 0 1-31.352 48.749z" class="cls-1" data-name="Path 390"/>
            </g>
            <g id="Group_320" data-name="Group 320">
                <path id="Path_391" d="M-654.336 59.619a1.541 1.541 0 0 1-1.542 1.54h-9.245a1.541 1.541 0 0 1-1.541-1.54v-4.43h-19.454v20.032a5.008 5.008 0 0 0 5.008 5.008h41.22a5.008 5.008 0 0 0 5.008-5.008V55.189h-19.454z" class="cls-1" data-name="Path 391"/>
                <path id="Path_392" d="M-639.89 43.053h-11.942v-5.007a3.275 3.275 0 0 0-3.274-3.275h-10.787a3.276 3.276 0 0 0-3.276 3.275v5.007h-11.941a5.009 5.009 0 0 0-5.008 5.009v5.585h51.236v-5.585a5.009 5.009 0 0 0-5.008-5.009zm-25.81-4.816h10.4v4.816h-10.4z" class="cls-1" data-name="Path 392"/>
            </g>
        </g>
    </g>
</svg>
