<svg xmlns="http://www.w3.org/2000/svg" width="115" height="115" viewBox="0 0 115 115">
    <defs>
        <style>
            .cls-1{fill:#77b5ed}
        </style>
    </defs>
    <g id="icone" transform="translate(1055 .5)">
        <g id="Group_231" data-name="Group 231">
            <g id="Element">
                <path id="Path_336" d="M-962.875 51.925a1.756 1.756 0 0 0-1.294-.57h-19.1l-4.254-9.68a1.754 1.754 0 0 0-2.312-.9 1.754 1.754 0 0 0-.9 2.312l3.633 8.268h-9.909a1.753 1.753 0 0 0-1.294.57 1.753 1.753 0 0 0-.454 1.339l3.284 37.221a1.754 1.754 0 0 0 1.748 1.6h26.274a1.754 1.754 0 0 0 1.747-1.6l3.284-37.221a1.753 1.753 0 0 0-.453-1.339zm-29.246 36.652l-.366-4.155h23.794l-.367 4.155zm23.738-7.664H-992.8l-2.3-26.049h9.536l2.442 5.557a3.018 3.018 0 0 0-.759 1.994 3.211 3.211 0 0 0 3.287 3.123 3.212 3.212 0 0 0 3.287-3.123 3.16 3.16 0 0 0-2.431-3.015l-1.994-4.536h15.643z" class="cls-1" data-name="Path 336"/>
                <path id="Path_337" d="M-1002.763 74.777h-12.28V23.669a1.754 1.754 0 0 0-1.754-1.754 1.754 1.754 0 0 0-1.754 1.754v51.108h-12.28a1.754 1.754 0 0 0-1.754 1.754v13.8a1.754 1.754 0 0 0 1.754 1.754 1.754 1.754 0 0 0 1.754-1.754v-5.263h1.17v5.263a1.754 1.754 0 0 0 1.754 1.754 1.754 1.754 0 0 0 1.754-1.754v-5.263h1.17v5.263a1.754 1.754 0 0 0 1.754 1.754 1.754 1.754 0 0 0 1.754-1.754v-5.263h1.17v5.263a1.754 1.754 0 0 0 1.754 1.754 1.754 1.754 0 0 0 1.754-1.754v-5.263h1.17v5.263a1.754 1.754 0 0 0 1.754 1.754 1.754 1.754 0 0 0 1.754-1.754v-5.263h1.17v5.263a1.754 1.754 0 0 0 1.754 1.754 1.754 1.754 0 0 0 1.754-1.754v-5.263h1.17v5.263a1.754 1.754 0 0 0 1.754 1.754 1.754 1.754 0 0 0 1.754-1.754v-13.8a1.754 1.754 0 0 0-1.754-1.754zm-26.314 3.508h24.56v3.275h-24.56z" class="cls-1" data-name="Path 337"/>
            </g>
            <g id="Group_230" data-name="Group 230">
                <g id="Group_229" data-name="Group 229">
                    <path id="Path_338" d="M-940 57a57.585 57.585 0 0 0-35.04-52.929A57.175 57.175 0 0 0-997.5-.5a57.175 57.175 0 0 0-22.46 4.571A57.585 57.585 0 0 0-1055 57a57.587 57.587 0 0 0 35.04 52.929 57.175 57.175 0 0 0 22.46 4.571 57.175 57.175 0 0 0 22.46-4.571A57.587 57.587 0 0 0-940 57zm-35.245 48.749a53.263 53.263 0 0 1-22.255 4.858 53.263 53.263 0 0 1-22.255-4.858A53.67 53.67 0 0 1-1051.107 57a53.667 53.667 0 0 1 31.352-48.749A53.263 53.263 0 0 1-997.5 3.393a53.278 53.278 0 0 1 22.255 4.857A53.67 53.67 0 0 1-943.893 57a53.669 53.669 0 0 1-31.352 48.749z" class="cls-1" data-name="Path 338"/>
                </g>
            </g>
        </g>
    </g>
</svg>
