<svg xmlns="http://www.w3.org/2000/svg" id="icone" width="115" height="115" viewBox="0 0 115 115">
    <defs>
        <style>
            .cls-1,.cls-2{fill:#a27abf}.cls-2{stroke:#8559a5;stroke-miterlimit:10;stroke-width:.567px}
        </style>
    </defs>
    <g id="Group_337" data-name="Group 337">
        <g id="Group_335" data-name="Group 335">
            <g id="Group_334" data-name="Group 334">
                <path id="Path_411" d="M115 57.5a57.509 57.509 0 1 0-35.04 52.929A57.585 57.585 0 0 0 115 57.5zm-35.245 48.749a53.589 53.589 0 1 1-44.51-97.5 53.589 53.589 0 1 1 44.51 97.5z" class="cls-1" data-name="Path 411"/>
            </g>
        </g>
        <g id="Group_336" data-name="Group 336">
            <path id="Path_412" d="M31.471 84.742h28.18v-2.168h-28.18a3.252 3.252 0 0 1-3.252-3.252V31.633a3.251 3.251 0 0 1 3.252-3.251h47.688a3.251 3.251 0 0 1 3.252 3.251v24.928h2.168V31.633a5.426 5.426 0 0 0-5.42-5.419H31.471a5.426 5.426 0 0 0-5.419 5.419v47.689a5.427 5.427 0 0 0 5.419 5.42zm0 0" class="cls-2" data-name="Path 412"/>
            <path id="Rectangle_227" d="M0 0h2.167v2.167H0z" class="cls-2" data-name="Rectangle 227" transform="translate(30.388 30.55)"/>
            <path id="Rectangle_228" d="M0 0h2.168v2.167H0z" class="cls-2" data-name="Rectangle 228" transform="translate(34.722 30.55)"/>
            <path id="Rectangle_229" d="M0 0h2.168v2.167H0z" class="cls-2" data-name="Rectangle 229" transform="translate(39.058 30.55)"/>
            <path id="Rectangle_230" d="M0 0h49.856v2.168H0z" class="cls-2" data-name="Rectangle 230" transform="translate(30.388 34.885)"/>
            <path id="Path_413" d="M41.543 39.538l-2.753 2.753a5.437 5.437 0 1 0 1.532 1.533l2.753-2.753zm-5.737 10.52a3.251 3.251 0 0 1 0-6.5 3.189 3.189 0 0 1 1.393.325L35.04 46.04l1.532 1.533 2.161-2.158a3.2 3.2 0 0 1 .325 1.392 3.251 3.251 0 0 1-3.252 3.251zm0 0" class="cls-2" data-name="Path 413"/>
            <path id="Rectangle_231" d="M0 0h18.425v2.167H0z" class="cls-2" data-name="Rectangle 231" transform="translate(44.477 43.556)"/>
            <path id="Rectangle_232" d="M0 0h7.587v2.167H0z" class="cls-2" data-name="Rectangle 232" transform="translate(44.477 47.891)"/>
            <path id="Rectangle_233" d="M0 0h15.173v2.167H0z" class="cls-2" data-name="Rectangle 233" transform="translate(54.232 47.891)"/>
            <path id="Rectangle_234" d="M0 0h10.838v2.167H0z" class="cls-2" data-name="Rectangle 234" transform="translate(65.07 43.556)"/>
            <path id="Path_414" d="M41.543 52.544L38.79 55.3a5.437 5.437 0 1 0 1.532 1.533l2.753-2.754zm-5.737 10.521a3.252 3.252 0 0 1 0-6.5 3.19 3.19 0 0 1 1.393.326l-2.159 2.155 1.532 1.532 2.161-2.158a3.2 3.2 0 0 1 .325 1.393 3.252 3.252 0 0 1-3.252 3.252zm0 0" class="cls-2" data-name="Path 414"/>
            <path id="Rectangle_235" d="M0 0h18.425v2.168H0z" class="cls-2" data-name="Rectangle 235" transform="translate(44.477 56.561)"/>
            <path id="Rectangle_236" d="M0 0h7.587v2.168H0z" class="cls-2" data-name="Rectangle 236" transform="translate(44.477 60.897)"/>
            <path id="Rectangle_237" d="M0 0h8.67v2.168H0z" class="cls-2" data-name="Rectangle 237" transform="translate(54.232 60.897)"/>
            <path id="Rectangle_238" d="M0 0h4.335v2.168H0z" class="cls-2" data-name="Rectangle 238" transform="translate(65.07 56.561)"/>
            <path id="Path_415" d="M41.543 65.55L38.79 68.3a5.436 5.436 0 1 0 1.532 1.532l2.753-2.752zm-5.737 10.521a3.251 3.251 0 0 1 0-6.5 3.175 3.175 0 0 1 1.393.325l-2.159 2.156 1.532 1.533 2.161-2.159a3.2 3.2 0 0 1 .325 1.393 3.252 3.252 0 0 1-3.252 3.252zm0 0" class="cls-2" data-name="Path 415"/>
            <path id="Rectangle_239" d="M0 0h14.09v2.168H0z" class="cls-2" data-name="Rectangle 239" transform="translate(44.477 69.568)"/>
            <path id="Rectangle_240" d="M0 0h7.587v2.167H0z" class="cls-2" data-name="Rectangle 240" transform="translate(44.477 73.903)"/>
            <path id="Rectangle_241" d="M0 0h4.335v2.167H0z" class="cls-2" data-name="Rectangle 241" transform="translate(54.232 73.903)"/>
            <path id="Path_416" d="M76.992 91.245a16.258 16.258 0 1 0-16.257-16.258 16.258 16.258 0 0 0 16.257 16.258zm0-30.348A14.09 14.09 0 1 1 62.9 74.987 14.09 14.09 0 0 1 76.992 60.9zm0 0" class="cls-2" data-name="Path 416"/>
            <path id="Path_417" d="M70.387 76.241l-1.946.861 2.174 3.855a1.082 1.082 0 0 0 .8.52 1.373 1.373 0 0 0 .169.013 1.169 1.169 0 0 0 .769-.282l13.04-11.564-1.536-1.362L71.879 78.9zm0 0" class="cls-2" data-name="Path 417"/>
        </g>
    </g>
</svg>
