<svg xmlns="http://www.w3.org/2000/svg" width="115" height="115" viewBox="0 0 115 115">
    <defs>
        <style>
            .cls-1,.cls-2{fill:#ff6161}.cls-2{fill-rule:evenodd}
        </style>
    </defs>
    <g id="icone" transform="translate(1223 2)">
        <g id="Group_276" data-name="Group 276">
            <g id="Group_275" data-name="Group 275">
                <g id="Group_274" data-name="Group 274">
                    <g id="Group_273" data-name="Group 273">
                        <g id="Group_272" data-name="Group 272">
                            <path id="Path_370" d="M-1165.5 113a57.565 57.565 0 0 1-57.5-57.5A57.565 57.565 0 0 1-1165.5-2a57.565 57.565 0 0 1 57.5 57.5 57.565 57.565 0 0 1-57.5 57.5zm0-111.107a53.668 53.668 0 0 0-53.607 53.607 53.668 53.668 0 0 0 53.607 53.607 53.668 53.668 0 0 0 53.607-53.607A53.668 53.668 0 0 0-1165.5 1.893z" class="cls-1" data-name="Path 370"/>
                        </g>
                    </g>
                    <path id="Path_371" d="M-1136.4 79.668l-10.361-10.342a3.447 3.447 0 0 0-3.729-.772l-1.958-1.978a24.74 24.74 0 0 0-.963-33.962 24.759 24.759 0 0 0-34.98 0 24.761 24.761 0 0 0 0 34.979 24.743 24.743 0 0 0 33.964.961l1.979 1.959a3.443 3.443 0 0 0 .771 3.73l10.341 10.361a3.5 3.5 0 0 0 4.936 0 3.5 3.5 0 0 0 0-4.936zm-19.968-15.013a20.571 20.571 0 0 1-29.066-.019 20.589 20.589 0 0 1 0-29.065 20.588 20.588 0 0 1 29.066 0 20.575 20.575 0 0 1 0 29.084z" class="cls-2" data-name="Path 371"/>
                </g>
            </g>
        </g>
    </g>
</svg>
