<svg xmlns="http://www.w3.org/2000/svg" width="115" height="115" viewBox="0 0 115 115">
    <defs>
        <style>
            .cls-1,.cls-2{fill:#77b5ed}.cls-2{stroke:#5497d3;stroke-miterlimit:10;stroke-width:.567px}
        </style>
    </defs>
    <g id="icone" transform="translate(176)">
        <g id="Group_268" data-name="Group 268">
            <g id="Group_267" data-name="Group 267">
                <path id="Path_359" d="M-61 57.5A57.585 57.585 0 0 0-96.04 4.571 57.175 57.175 0 0 0-118.5 0a57.175 57.175 0 0 0-22.46 4.571A57.585 57.585 0 0 0-176 57.5a57.587 57.587 0 0 0 35.04 52.929A57.175 57.175 0 0 0-118.5 115a57.175 57.175 0 0 0 22.46-4.571A57.587 57.587 0 0 0-61 57.5zm-35.245 48.749a53.263 53.263 0 0 1-22.255 4.858 53.263 53.263 0 0 1-22.255-4.858A53.67 53.67 0 0 1-172.107 57.5a53.667 53.667 0 0 1 31.352-48.749A53.263 53.263 0 0 1-118.5 3.893 53.278 53.278 0 0 1-96.245 8.75 53.67 53.67 0 0 1-64.893 57.5a53.668 53.668 0 0 1-31.352 48.749z" class="cls-1" data-name="Path 359"/>
            </g>
        </g>
        <path id="Path_360" d="M-98.076 69.861A113.993 113.993 0 0 0-97.245 56a8.7 8.7 0 0 0 2.838-2.52c2.124-3 2.3-7.272.528-12.722a1.32 1.32 0 0 0-.528-.686l-.885-.594A19.9 19.9 0 0 0-100.042 26c-3.959-4.382-10.017-6.6-18.054-6.6-8.036 0-14.107 2.27-18.053 6.6a19.9 19.9 0 0 0-4.751 13.482l-.884.594a1.32 1.32 0 0 0-.528.686c-3.061 9.436.357 13.5 3.273 15.216a97.566 97.566 0 0 0 .752 13.922c-7.179 2.811-14.952 7.813-14.727 16.206a1.319 1.319 0 0 0 1.319 1.32h67.08a1.319 1.319 0 0 0 1.319-1.32c.212-8.433-7.641-13.447-14.78-16.245zm-40.91-17.156c-2.64-2.639-2.138-7.06-1-10.742l1.122-.752a1.321 1.321 0 0 0 .58-1.228 17.646 17.646 0 0 1 4.062-12.283c3.418-3.748 8.829-5.688 16.06-5.714s12.643 1.966 16.074 5.754a17.643 17.643 0 0 1 4.065 12.286 1.318 1.318 0 0 0 .58 1.227l1.135.752c1.32 4.4 1.254 7.734-.3 9.938a5.8 5.8 0 0 1-.726.831c-.462-10.016-2.811-17.525-7.06-22.369a17.866 17.866 0 0 0-6.981-4.909h-.119a21.789 21.789 0 0 0-7.575-1.412 16 16 0 0 0-12.682 5.437c-5.041 5.7-6.8 14.992-7.245 23.227zm30.775 12.1a14.967 14.967 0 0 0 2.138-3.523 15.141 15.141 0 0 0 .791-2.4l3.5-1.478a11.5 11.5 0 0 0 1.913-.343 114.71 114.71 0 0 1-.765 11.877 60.855 60.855 0 0 0-7.549-1.993V65.07a1.265 1.265 0 0 0-.039-.211zm-7.192-7.838a4.117 4.117 0 0 0-4.145 4.089 4.118 4.118 0 0 0 4.09 4.145 4.116 4.116 0 0 0 4.132-3.8l2.838-1.2c-2.323 5.45-8 7.535-9.647 8.037-7.232-3.959-10.98-7.918-10.835-11.772.238-6.15 10.083-10.557 11.2-11.085a15.234 15.234 0 0 0 6.018-4.355c3.392 6.189 4.751 11.521 4.1 15.942L-112 58.8a4.119 4.119 0 0 0-3.418-1.782zm1.478 4.117a1.478 1.478 0 0 1-1.478 1.478 1.479 1.479 0 0 1-1.479-1.478 1.479 1.479 0 0 1 1.479-1.478 1.478 1.478 0 0 1 1.452 1.5v.028zm-22.435-6.294c.251-8.261 1.716-18 6.6-23.6a13.2 13.2 0 0 1 10.663-4.54 19.819 19.819 0 0 1 5.741.9 10.572 10.572 0 0 0 .475 3.655c.568 2.191 1.148 4.448 0 6.6v.095q-.036.065-.066.132c0 .119-1 2.837-5.846 4.936-2.085.9-12.5 5.793-12.788 13.394-.105 2.745 1.122 5.424 3.643 8.037a1.312 1.312 0 0 0-.172.607v1.861a60.772 60.772 0 0 0-7.681 2.032 100.642 100.642 0 0 1-.633-13.276 1.318 1.318 0 0 0 .013-.791zm26.116-16.377a11.873 11.873 0 0 0 0-7.918 23.89 23.89 0 0 1-.422-1.835 15.313 15.313 0 0 1 4.329 3.432c4.051 4.632 6.229 12.061 6.479 22.17a8.46 8.46 0 0 1-2.23.475 1.34 1.34 0 0 0-.475.106l-2.243.95c.206-4.962-1.584-10.793-5.438-17.38zm-9.237 46.334h-30.854c1.042-9.911 17.155-14.055 22.2-15.124v2.31c0 3 3.642 5.278 8.657 5.661zm-6.018-12.8v-5.28a43.485 43.485 0 0 0 6.6 4.184 1.332 1.332 0 0 0 .621.158h.29a19.99 19.99 0 0 0 7.179-3.59v4.553c0 1.254-2.864 3.062-7.337 3.062s-7.351-1.874-7.351-3.088zm8.657 12.8v-7.14c5.015-.343 8.657-2.639 8.657-5.661v-2.31c5.081 1.056 21.115 5.187 22.2 15.124z" class="cls-2" data-name="Path 360"/>
    </g>
</svg>
