<svg xmlns="http://www.w3.org/2000/svg" width="115" height="115" viewBox="0 0 115 115">
    <defs>
        <style>
            .cls-1{fill:#ff6161}
        </style>
    </defs>
    <g id="icone" transform="translate(708 1.5)">
        <g id="Group_297" data-name="Group 297">
            <g id="Group_296" data-name="Group 296">
                <g id="Group_295" data-name="Group 295">
                    <g id="Group_294" data-name="Group 294">
                        <g id="Group_293" data-name="Group 293">
                            <g id="Group_292" data-name="Group 292">
                                <path id="Path_376" d="M-650.5 113.5A57.565 57.565 0 0 1-708 56a57.565 57.565 0 0 1 57.5-57.5A57.565 57.565 0 0 1-593 56a57.565 57.565 0 0 1-57.5 57.5zm0-111.107A53.668 53.668 0 0 0-704.107 56a53.668 53.668 0 0 0 53.607 53.607A53.668 53.668 0 0 0-596.893 56 53.668 53.668 0 0 0-650.5 2.393z" class="cls-1" data-name="Path 376"/>
                            </g>
                        </g>
                        <path id="Path_377" d="M-635.618 25.242h-30.96a3.777 3.777 0 0 0-3.77 3.773v53.971a3.776 3.776 0 0 0 3.77 3.772h37.925a3.775 3.775 0 0 0 3.77-3.772v-46.08zm.891 5.644l4.706 5.114h-4.706zm6.677 52.1a.607.607 0 0 1-.6.6h-37.924a.606.606 0 0 1-.6-.6V29.015a.6.6 0 0 1 .6-.6h28.674v9.173a1.586 1.586 0 0 0 1.585 1.583h8.262zm-33.543-40.9h26.9a1.188 1.188 0 0 1 1.186 1.187 1.187 1.187 0 0 1-1.186 1.186h-26.9a1.186 1.186 0 0 1-1.187-1.186 1.187 1.187 0 0 1 1.187-1.183zm28.087 9.163a1.187 1.187 0 0 1-1.186 1.186h-26.9a1.186 1.186 0 0 1-1.187-1.186 1.186 1.186 0 0 1 1.187-1.187h26.9a1.187 1.187 0 0 1 1.186 1.191zm0 7.713a1.187 1.187 0 0 1-1.186 1.188h-26.9a1.187 1.187 0 0 1-1.187-1.188 1.187 1.187 0 0 1 1.187-1.187h26.9a1.188 1.188 0 0 1 1.186 1.191zm0 7.847A1.186 1.186 0 0 1-634.692 68h-26.9a1.186 1.186 0 0 1-1.187-1.185 1.187 1.187 0 0 1 1.187-1.187h26.9a1.188 1.188 0 0 1 1.186 1.185z" class="cls-1" data-name="Path 377"/>
                    </g>
                </g>
            </g>
        </g>
    </g>
</svg>
