<svg xmlns="http://www.w3.org/2000/svg" width="115" height="115" viewBox="0 0 115 115">
    <defs>
        <style>
            .cls-1{fill:#a27abf}
        </style>
    </defs>
    <g id="icone" transform="translate(879 .5)">
        <g id="Group_318" data-name="Group 318">
            <g id="Group_317" data-name="Group 317">
                <path id="Path_388" d="M-824.562 33.429c1.685-3.412 4.44-3.412 6.124 0l3.365 6.819a14.768 14.768 0 0 0 9.9 7.2l7.526 1.093c3.766.549 4.615 3.168 1.893 5.823l-5.446 5.309a14.784 14.784 0 0 0-3.783 11.646l1.284 7.495c.644 3.748-1.585 5.372-4.952 3.6l-6.732-3.541a14.788 14.788 0 0 0-12.244 0l-6.734 3.541c-3.367 1.772-5.594.148-4.952-3.6l1.286-7.495a14.783 14.783 0 0 0-3.773-11.648l-5.446-5.309c-2.723-2.655-1.874-5.274 1.892-5.823l7.527-1.093a14.771 14.771 0 0 0 9.9-7.2z" class="cls-1" data-name="Path 388"/>
                <g id="Group_316" data-name="Group 316">
                    <path id="Path_389" d="M-764 57a57.585 57.585 0 0 0-35.04-52.929A57.175 57.175 0 0 0-821.5-.5a57.175 57.175 0 0 0-22.46 4.571A57.585 57.585 0 0 0-879 57a57.587 57.587 0 0 0 35.04 52.929 57.175 57.175 0 0 0 22.46 4.571 57.175 57.175 0 0 0 22.46-4.571A57.587 57.587 0 0 0-764 57zm-35.245 48.749a53.263 53.263 0 0 1-22.255 4.858 53.263 53.263 0 0 1-22.255-4.858A53.67 53.67 0 0 1-875.107 57a53.667 53.667 0 0 1 31.352-48.749A53.263 53.263 0 0 1-821.5 3.393a53.278 53.278 0 0 1 22.255 4.857A53.67 53.67 0 0 1-767.893 57a53.669 53.669 0 0 1-31.352 48.749z" class="cls-1" data-name="Path 389"/>
                </g>
            </g>
        </g>
    </g>
</svg>
