<svg xmlns="http://www.w3.org/2000/svg" width="115" height="115" viewBox="0 0 115 115">
    <defs>
        <style>
            .cls-1{fill:#ff6161}.cls-2{fill:none;stroke:#ff6161;stroke-miterlimit:10;stroke-width:2.835px}
        </style>
    </defs>
    <g id="icone" transform="translate(344 1.5)">
        <g id="Group_304" data-name="Group 304">
            <g id="Group_303" data-name="Group 303">
                <g id="Group_302" data-name="Group 302">
                    <path id="Path_380" d="M-286.5 113.5A57.565 57.565 0 0 1-344 56a57.565 57.565 0 0 1 57.5-57.5A57.565 57.565 0 0 1-229 56a57.565 57.565 0 0 1-57.5 57.5zm0-111.107A53.668 53.668 0 0 0-340.107 56a53.668 53.668 0 0 0 53.607 53.607A53.668 53.668 0 0 0-232.893 56 53.668 53.668 0 0 0-286.5 2.393z" class="cls-1" data-name="Path 380"/>
                </g>
            </g>
        </g>
        <g id="Group_306" data-name="Group 306">
            <g id="Group_305" data-name="Group 305">
                <path id="Path_381" d="M-276.849 73.668a1.977 1.977 0 0 1 1.282.487v-3.989c.287-5.7 9.749-25.9 9.749-31.317A20.539 20.539 0 0 0-286.5 18.455a20.54 20.54 0 0 0-20.683 20.394c0 5.37 9.583 26.112 9.749 31.317v3.989a1.985 1.985 0 0 1 1.282-.487zm-21.244-32.116a1.143 1.143 0 0 1-1.127 1.158 1.142 1.142 0 0 1-1.125-1.158v-7.045a1.143 1.143 0 0 1 1.125-1.16 1.143 1.143 0 0 1 1.127 1.16z" class="cls-2" data-name="Path 381"/>
                <path id="Path_382" d="M-275.567 75.071a1.973 1.973 0 0 0-1.282-.489h-19.3a1.981 1.981 0 0 0-1.282.489 3.135 3.135 0 0 0-1.03 2.406v11.786a2.654 2.654 0 0 0 2.312 2.895h19.3a2.651 2.651 0 0 0 2.31-2.895V77.477a3.133 3.133 0 0 0-1.028-2.406z" class="cls-2" data-name="Path 382"/>
            </g>
        </g>
    </g>
</svg>
