<svg xmlns="http://www.w3.org/2000/svg" width="115" height="115" viewBox="0 0 115 115">
    <defs>
        <style>
            .cls-1,.cls-2{fill:#ff6161}.cls-2{fill-rule:evenodd}
        </style>
    </defs>
    <g id="icone" transform="translate(522 1.5)">
        <g id="Group_301" data-name="Group 301">
            <g id="Group_300" data-name="Group 300">
                <g id="Group_299" data-name="Group 299">
                    <g id="Group_298" data-name="Group 298">
                        <path id="Path_378" d="M-464.5 113.5A57.565 57.565 0 0 1-522 56a57.565 57.565 0 0 1 57.5-57.5A57.565 57.565 0 0 1-407 56a57.565 57.565 0 0 1-57.5 57.5zm0-111.107A53.668 53.668 0 0 0-518.107 56a53.668 53.668 0 0 0 53.607 53.607A53.668 53.668 0 0 0-410.893 56 53.668 53.668 0 0 0-464.5 2.393z" class="cls-1" data-name="Path 378"/>
                    </g>
                </g>
                <path id="Path_379" d="M-435.4 80.168l-10.361-10.342a3.447 3.447 0 0 0-3.729-.772l-1.958-1.978a24.74 24.74 0 0 0-.963-33.962 24.759 24.759 0 0 0-34.98 0 24.761 24.761 0 0 0 0 34.979 24.743 24.743 0 0 0 33.964.961l1.979 1.959a3.444 3.444 0 0 0 .771 3.73l10.344 10.357a3.5 3.5 0 0 0 4.936 0 3.5 3.5 0 0 0 0-4.936zm-19.968-15.013a20.571 20.571 0 0 1-29.066-.019 20.589 20.589 0 0 1 0-29.065 20.588 20.588 0 0 1 29.066 0 20.575 20.575 0 0 1 0 29.084z" class="cls-2" data-name="Path 379"/>
            </g>
        </g>
    </g>
</svg>
