<svg xmlns="http://www.w3.org/2000/svg" width="115" height="115" viewBox="0 0 115 115">
    <defs>
        <style>
            .cls-1{fill:#a27abf}
        </style>
    </defs>
    <g id="icone" transform="translate(542)">
        <g id="Group_324" data-name="Group 324">
            <g id="Group_322" data-name="Group 322">
                <path id="Path_393" d="M-427 57.5a57.585 57.585 0 0 0-35.04-52.929A57.175 57.175 0 0 0-484.5 0a57.175 57.175 0 0 0-22.46 4.571A57.585 57.585 0 0 0-542 57.5a57.587 57.587 0 0 0 35.04 52.929A57.175 57.175 0 0 0-484.5 115a57.175 57.175 0 0 0 22.46-4.571A57.587 57.587 0 0 0-427 57.5zm-35.245 48.749a53.263 53.263 0 0 1-22.255 4.858 53.263 53.263 0 0 1-22.255-4.858A53.67 53.67 0 0 1-538.107 57.5a53.667 53.667 0 0 1 31.352-48.749A53.263 53.263 0 0 1-484.5 3.893a53.278 53.278 0 0 1 22.255 4.857 53.67 53.67 0 0 1 31.352 48.75 53.668 53.668 0 0 1-31.352 48.749z" class="cls-1" data-name="Path 393"/>
            </g>
            <g id="Group_323" data-name="Group 323">
                <path id="Path_394" d="M-447.1 59.6c-.641-.6-.479-2.219-.268-2.673s1.079-.659 1.929-.466 1.768-.6 2.038-1.773a1.961 1.961 0 0 0-1.061-2.484c-.854-.2-1.527-1.672-1.57-2.172s.6-1.12 1.442-1.379a1.965 1.965 0 0 0 .878-2.554c-.355-1.15-1.324-1.878-2.165-1.622s-2.152-.677-2.441-1.093-.038-1.274.555-1.915a1.969 1.969 0 0 0-.518-2.653 1.96 1.96 0 0 0-2.681-.322c-.6.641-1.438.953-1.872.7s-1.46-1.507-1.267-2.357-.607-1.771-1.775-2.039a1.965 1.965 0 0 0-2.486 1.06c-.193.857-1.673 1.53-2.172 1.575s-1.118-.6-1.376-1.444a1.962 1.962 0 0 0-2.553-.878c-1.15.353-1.88 1.326-1.624 2.164s-.678 2.152-1.09 2.442-1.277.04-1.918-.556a1.966 1.966 0 0 0-2.653.519 1.969 1.969 0 0 0-.324 2.683c.641.593.48 2.219.271 2.67s-1.081.663-1.932.466-1.767.6-2.038 1.773a1.971 1.971 0 0 0 1.062 2.488c.856.2 1.53 1.673 1.572 2.172s-.6 1.119-1.44 1.375a1.963 1.963 0 0 0-.878 2.557c.355 1.148 1.326 1.878 2.16 1.621s2.156.677 2.444 1.091.042 1.276-.554 1.916a1.965 1.965 0 0 0 .515 2.653 1.967 1.967 0 0 0 2.683.323c.6-.641 2.221-.481 2.671-.27s.665 1.077.465 1.934.608 1.767 1.778 2.035A1.966 1.966 0 0 0-460.8 66.1c.2-.852 1.673-1.527 2.172-1.57s1.121.6 1.377 1.442a1.972 1.972 0 0 0 2.557.877c1.152-.351 1.878-1.325 1.619-2.161s.681-2.155 1.093-2.443 1.275-.039 1.918.557a1.963 1.963 0 0 0 2.651-.517 1.964 1.964 0 0 0 .313-2.685zm-18.973-1.639a9.535 9.535 0 0 1-.493-13.474 9.533 9.533 0 0 1 13.471-.489 9.531 9.531 0 0 1 .494 13.47 9.533 9.533 0 0 1-13.467.49z" class="cls-1" data-name="Path 394"/>
                <path id="Path_395" d="M-480.989 70.906c-1-.929-.746-3.45-.42-4.154s1.678-1.03 3-.728 2.752-.933 3.17-2.756-.328-3.563-1.651-3.863-2.375-2.6-2.444-3.379.939-1.74 2.243-2.138 1.915-2.186 1.365-3.973-2.062-2.921-3.363-2.523-3.348-1.052-3.8-1.7-.061-1.985.864-2.977.564-2.853-.8-4.127-3.241-1.5-4.168-.5-2.235 1.482-2.91 1.084-2.273-2.342-1.971-3.668-.939-2.752-2.759-3.168-3.561.326-3.863 1.651-2.6 2.376-3.377 2.447-1.738-.939-2.14-2.241-2.188-1.918-3.972-1.37-2.919 2.064-2.523 3.364-1.053 3.348-1.7 3.8-1.983.059-2.979-.867-2.851-.562-4.123.807-1.5 3.245-.5 4.171.746 3.45.42 4.152-1.678 1.03-3 .726-2.748.937-3.168 2.758.327 3.558 1.651 3.862 2.377 2.6 2.444 3.378-.941 1.741-2.241 2.138-1.917 2.188-1.365 3.975 2.061 2.919 3.36 2.519 3.349 1.055 3.8 1.7.059 1.985-.866 2.981-.564 2.851.8 4.123 3.247 1.5 4.172.5 3.45-.743 4.154-.416 1.028 1.675.722 3 .941 2.749 2.76 3.166 3.559-.326 3.863-1.651 2.6-2.376 3.379-2.441 1.738.937 2.14 2.241 2.188 1.914 3.973 1.364 2.918-2.06 2.519-3.36 1.056-3.352 1.7-3.8 1.985-.06 2.981.867 2.852.563 4.123-.806 1.496-3.242.5-4.168zm-29.5-2.552a14.819 14.819 0 0 1-.768-20.942 14.825 14.825 0 0 1 20.945-.766 14.822 14.822 0 0 1 .765 20.944 14.816 14.816 0 0 1-20.94.764z" class="cls-1" data-name="Path 395"/>
                <path id="Path_396" d="M-493.007 64.9a10.455 10.455 0 0 1-14.783 0 10.456 10.456 0 0 1 0-14.788 10.455 10.455 0 0 1 14.787 0 10.454 10.454 0 0 1-.004 14.788z" class="cls-1" data-name="Path 396"/>
            </g>
        </g>
    </g>
</svg>
