<svg xmlns="http://www.w3.org/2000/svg" width="115" height="115" viewBox="0 0 115 115">
    <defs>
        <style>
            .cls-1,.cls-2{fill:#77b5ed}.cls-1{fill-rule:evenodd}
        </style>
    </defs>
    <g id="icone" transform="translate(894)">
        <path id="Path_339" d="M-827.619 32.813l2.367.98a.275.275 0 0 0 .081.019.218.218 0 0 0 .072-.027l5.099-2.629a3.352 3.352 0 0 1 2.061-.338 3.351 3.351 0 0 1 1.861.947h.007l5.309 5.311a3.359 3.359 0 0 1 .948 1.867 3.351 3.351 0 0 1-.342 2.057l-2.629 5.095a.215.215 0 0 0-.027.071.216.216 0 0 0 .021.087l1.014 2.446a.172.172 0 0 0 .041.064.167.167 0 0 0 .066.036l5.458 1.744a3.358 3.358 0 0 1 1.7 1.216 3.361 3.361 0 0 1 .65 1.993v7.493a3.355 3.355 0 0 1-.649 1.986v.007a3.373 3.373 0 0 1-1.7 1.215l-5.459 1.747a.167.167 0 0 0-.067.037.21.21 0 0 0-.041.07l-1.013 2.439a.212.212 0 0 0-.021.086.21.21 0 0 0 .027.072l2.629 5.1a3.347 3.347 0 0 1 .338 2.06 3.365 3.365 0 0 1-.948 1.868l-5.309 5.31a3.365 3.365 0 0 1-1.868.948 3.358 3.358 0 0 1-2.057-.345l-5.095-2.63a.267.267 0 0 0-.072-.027.251.251 0 0 0-.086.021l-2.446 1.013a.188.188 0 0 0-.064.042.174.174 0 0 0-.036.066l-1.745 5.464a3.345 3.345 0 0 1-1.22 1.7 3.357 3.357 0 0 1-1.986.649h-7.493a3.357 3.357 0 0 1-1.986-.649 3.353 3.353 0 0 1-1.221-1.7l-1.743-5.466a.174.174 0 0 0-.036-.066.217.217 0 0 0-.071-.041l-2.439-1.013a.251.251 0 0 0-.086-.021.266.266 0 0 0-.072.027L-853 83.845a3.362 3.362 0 0 1-2.062.338 3.356 3.356 0 0 1-1.867-.948l-5.31-5.31-.11-.121a3.363 3.363 0 0 1-.838-1.746 3.356 3.356 0 0 1 .342-2.058l2.63-5.1a.21.21 0 0 0 .027-.072.251.251 0 0 0-.021-.086l-1.013-2.445a.165.165 0 0 0-.041-.065.2.2 0 0 0-.067-.037l-5.458-1.742a3.36 3.36 0 0 1-1.7-1.215l-.086-.129a3.354 3.354 0 0 1-.564-1.864v-7.492a3.351 3.351 0 0 1 .65-1.986v-.006a3.36 3.36 0 0 1 1.7-1.215l5.453-1.742a.248.248 0 0 0 .072-.038.2.2 0 0 0 .042-.064l1.012-2.445a.256.256 0 0 0 .021-.087.194.194 0 0 0-.027-.071l-2.63-5.094a3.363 3.363 0 0 1-.338-2.062 3.374 3.374 0 0 1 .951-1.865l5.311-5.311a3.358 3.358 0 0 1 1.866-.947 3.363 3.363 0 0 1 2.062.338l5.095 2.629a.245.245 0 0 0 .072.027.236.236 0 0 0 .081-.019l2.48-1.029.035-.028a.193.193 0 0 0 .037-.072c.616-1.776 1.182-3.659 1.744-5.459a3.352 3.352 0 0 1 1.22-1.7 3.355 3.355 0 0 1 1.986-.649h7.492a3.36 3.36 0 0 1 1.987.649 3.361 3.361 0 0 1 1.221 1.7l1.744 5.466a.174.174 0 0 0 .036.066.209.209 0 0 0 .07.041l.077.035zm-8.881 39.413a14.683 14.683 0 0 0 10.413-4.313 14.683 14.683 0 0 0 4.313-10.413 14.683 14.683 0 0 0-4.313-10.413 14.679 14.679 0 0 0-10.413-4.313 14.681 14.681 0 0 0-10.413 4.313 14.683 14.683 0 0 0-4.313 10.413 14.679 14.679 0 0 0 4.313 10.412 14.678 14.678 0 0 0 10.413 4.314zm12.671-2.055a17.865 17.865 0 0 0 5.25-12.671 17.867 17.867 0 0 0-5.25-12.672 17.864 17.864 0 0 0-12.671-5.249 17.865 17.865 0 0 0-12.671 5.25 17.863 17.863 0 0 0-5.25 12.671 17.865 17.865 0 0 0 5.25 12.671A17.86 17.86 0 0 0-836.5 75.42a17.86 17.86 0 0 0 12.671-5.249zm-2.644-33.436l-2.446-1.012a3.35 3.35 0 0 1-1.193-.826 3.361 3.361 0 0 1-.723-1.266l-1.744-5.453a.193.193 0 0 0-.06-.1.21.21 0 0 0-.115-.025h-7.492a.21.21 0 0 0-.115.025.193.193 0 0 0-.06.1l-1.742 5.459a3.348 3.348 0 0 1-.724 1.258 3.33 3.33 0 0 1-1.095.782l-.1.046-2.452 1.013a3.324 3.324 0 0 1-1.421.258 3.361 3.361 0 0 1-1.407-.377l-5.095-2.629a.2.2 0 0 0-.116-.025.188.188 0 0 0-.094.061l-5.311 5.31h-.006a.179.179 0 0 0-.055.1.211.211 0 0 0 .026.116l2.63 5.094a3.356 3.356 0 0 1 .376 1.407 3.316 3.316 0 0 1-.258 1.421l-1.012 2.445a3.336 3.336 0 0 1-.828 1.2 3.345 3.345 0 0 1-1.258.724l-5.466 1.744a.183.183 0 0 0-.092.066.175.175 0 0 0-.025.108v7.493a.29.29 0 0 0 .013.094l.012.015a.183.183 0 0 0 .092.066l5.459 1.743a3.371 3.371 0 0 1 1.265.723 3.366 3.366 0 0 1 .828 1.2l1.012 2.446a3.316 3.316 0 0 1 .258 1.421 3.359 3.359 0 0 1-.376 1.407l-2.63 5.1a.211.211 0 0 0-.026.116.157.157 0 0 0 .027.062l5.344 5.342a.2.2 0 0 0 .095.062.209.209 0 0 0 .116-.026l5.095-2.63a3.36 3.36 0 0 1 1.407-.376 3.324 3.324 0 0 1 1.421.258l2.452 1.013a3.344 3.344 0 0 1 1.194.827 3.365 3.365 0 0 1 .723 1.264l1.742 5.454a.2.2 0 0 0 .061.1.206.206 0 0 0 .114.025h7.493a.2.2 0 0 0 .114-.025.2.2 0 0 0 .061-.1l1.743-5.453a3.356 3.356 0 0 1 .723-1.265 3.36 3.36 0 0 1 1.2-.827l2.446-1.013a3.324 3.324 0 0 1 1.421-.258 3.371 3.371 0 0 1 1.407.376l5.094 2.63a.209.209 0 0 0 .115.026.192.192 0 0 0 .095-.062l5.311-5.31a.2.2 0 0 0 .061-.1.2.2 0 0 0-.026-.115l-2.629-5.1a3.375 3.375 0 0 1-.377-1.407 3.347 3.347 0 0 1 .259-1.421l1.012-2.452a3.359 3.359 0 0 1 .828-1.193 3.352 3.352 0 0 1 1.265-.724l5.459-1.742a.182.182 0 0 0 .093-.067.175.175 0 0 0 .025-.108v-7.494a.192.192 0 0 0-.026-.109v-.006a.183.183 0 0 0-.092-.06l-5.459-1.743a3.385 3.385 0 0 1-1.265-.723 3.364 3.364 0 0 1-.827-1.2l-1.013-2.446a3.347 3.347 0 0 1-.259-1.421 3.371 3.371 0 0 1 .377-1.407l2.629-5.1a.2.2 0 0 0 .026-.115.2.2 0 0 0-.061-.1l-5.311-5.31a.193.193 0 0 0-.1-.058.193.193 0 0 0-.114.025l-5.095 2.629a3.366 3.366 0 0 1-1.407.378 3.333 3.333 0 0 1-1.427-.26zM-836.5 49.519a7.96 7.96 0 0 0-5.644 2.338v.006a7.954 7.954 0 0 0-2.337 5.637 7.958 7.958 0 0 0 2.338 5.643 7.958 7.958 0 0 0 5.643 2.338 7.946 7.946 0 0 0 5.548-2.251l.1-.087a7.958 7.958 0 0 0 2.338-5.643 7.958 7.958 0 0 0-2.338-5.643 7.958 7.958 0 0 0-5.643-2.338zm3.385 4.6a4.776 4.776 0 0 0-3.385-1.4 4.776 4.776 0 0 0-3.385 1.4 4.774 4.774 0 0 0-1.4 3.387 4.772 4.772 0 0 0 1.4 3.384 4.773 4.773 0 0 0 3.385 1.4 4.785 4.785 0 0 0 3.318-1.33l.067-.072a4.772 4.772 0 0 0 1.4-3.384 4.776 4.776 0 0 0-1.4-3.389z" class="cls-1" data-name="Path 339"/>
        <g id="Group_233" data-name="Group 233">
            <g id="Group_232" data-name="Group 232">
                <path id="Path_340" d="M-779 57.5a57.585 57.585 0 0 0-35.04-52.929A57.175 57.175 0 0 0-836.5 0a57.175 57.175 0 0 0-22.46 4.571A57.585 57.585 0 0 0-894 57.5a57.587 57.587 0 0 0 35.04 52.929A57.175 57.175 0 0 0-836.5 115a57.175 57.175 0 0 0 22.46-4.571A57.587 57.587 0 0 0-779 57.5zm-35.245 48.749a53.263 53.263 0 0 1-22.255 4.858 53.263 53.263 0 0 1-22.255-4.858A53.67 53.67 0 0 1-890.107 57.5a53.667 53.667 0 0 1 31.352-48.749A53.263 53.263 0 0 1-836.5 3.893a53.278 53.278 0 0 1 22.255 4.857 53.67 53.67 0 0 1 31.352 48.75 53.669 53.669 0 0 1-31.352 48.749z" class="cls-2" data-name="Path 340"/>
            </g>
        </g>
    </g>
</svg>
