<svg xmlns="http://www.w3.org/2000/svg" xmlns:xlink="http://www.w3.org/1999/xlink" width="197.994" height="50.211" viewBox="0 0 197.994 50.211">
    <defs>
        <style>
            .cls-1{fill:none}.cls-2{fill:#5497d3}.cls-3{fill:#fc4747}.cls-4{fill:#76a0ce}.cls-5{fill:#8559a5}.cls-6{fill:url(#linear-gradient)}.cls-7{fill:url(#linear-gradient-2)}.cls-8{fill:#f4863b}.cls-9{fill:#333}
        </style>
        <linearGradient id="linear-gradient" x1="-19.837" x2="11.309" y1="12.754" y2="-5.814" gradientUnits="objectBoundingBox">
            <stop offset="0" stop-color="#d0202d"/>
            <stop offset=".3" stop-color="#723f97"/>
            <stop offset=".338" stop-color="#684194"/>
            <stop offset=".473" stop-color="#47478a"/>
            <stop offset=".586" stop-color="#334b84"/>
            <stop offset=".662" stop-color="#2c4c82"/>
            <stop offset=".701" stop-color="#3a4c7c"/>
            <stop offset=".776" stop-color="#604d6e"/>
            <stop offset=".877" stop-color="#9d4d56"/>
            <stop offset="1" stop-color="#ef4e36"/>
        </linearGradient>
        <linearGradient id="linear-gradient-2" x1="-4388.615" x2="-4358.034" y1="-1066.408" y2="-1084.648" xlink:href="#linear-gradient"/>
    </defs>
    <g id="logo-v2" transform="translate(-375 -25)">
        <g id="simbolo" transform="translate(375 25)">
            <path id="Caminho_262" d="M45.428 80.7v.309a.669.669 0 0 1-1.339 0V80.7a12.172 12.172 0 0 1-4.789 3.708 8.35 8.35 0 0 0 2.935 1.492 2.7 2.7 0 0 0 .824 1.905 2.956 2.956 0 0 0 4.068 0 2.685 2.685 0 0 0 .824-2.163 7.6 7.6 0 0 0 2.266-1.287 11.6 11.6 0 0 1-4.789-3.655z" class="cls-1" data-name="Caminho 262" transform="translate(-18.984 -39.218)"/>
            <path id="Caminho_263" d="M9.6 44.774h-.309a.669.669 0 1 1 0-1.339H9.6A12.063 12.063 0 0 1 5.738 38.8a8.381 8.381 0 0 0-1.493 2.523h-.36a2.783 2.783 0 1 0 0 5.562h.36a7.966 7.966 0 0 0 1.493 2.523A11.225 11.225 0 0 1 9.6 44.774z" class="cls-1" data-name="Caminho 263" transform="translate(-.408 -18.896)"/>
            <path id="Caminho_264" d="M23.588 56.629a.668.668 0 1 1 .36-1.287l2.111.566 3.915-3.708h-5.562L23.331 54a.739.739 0 0 1-.927.257.617.617 0 0 1-.257-.875l.669-1.081a8.567 8.567 0 0 0-7.416 5.718 8.922 8.922 0 0 0 9.476-.978z" class="cls-1" data-name="Caminho 264" transform="translate(-7.392 -25.395)"/>
            <path id="Caminho_265" d="M21.416 71.345l-.206.206a.716.716 0 0 1-.978 0 .653.653 0 0 1 0-.927l.206-.206a12.411 12.411 0 0 1-6.128-.618 7.987 7.987 0 0 0 .669 2.472 2.639 2.639 0 0 0-.979 2.06 2.826 2.826 0 0 0 2.884 2.781 3.037 3.037 0 0 0 2.008-.772 8.48 8.48 0 0 0 3.193.927 11.7 11.7 0 0 1-.669-5.923z" class="cls-1" data-name="Caminho 265" transform="translate(-6.713 -33.931)"/>
            <path id="Caminho_266" d="M38.146 62.847a.661.661 0 0 1-.463.824.716.716 0 0 1-.875-.463l-.36-1.236a7.993 7.993 0 0 0-1.236 8.6 8.4 8.4 0 0 0 5.51-6.952l-1.133.618a.675.675 0 0 1-.927-.257.617.617 0 0 1 .257-.875l1.854-1.03V57.8l-3.193 3.038z" class="cls-1" data-name="Caminho 266" transform="translate(-16.646 -28.111)"/>
            <path id="Caminho_267" d="M22.913 40.907l-.669-1.081a.617.617 0 0 1 .257-.875.675.675 0 0 1 .927.257l1.081 1.8h5.15L15.6 35.5a8.683 8.683 0 0 0 7.313 5.407z" class="cls-1" data-name="Caminho 267" transform="translate(-7.489 -17.295)"/>
            <path id="Caminho_268" d="M63.719 54.938a.668.668 0 1 1 .36 1.287l-1.287.309a8.922 8.922 0 0 0 9.476.978L57.9 51.9l3.708 3.553z" class="cls-1" data-name="Caminho 268" transform="translate(-28.005 -25.249)"/>
            <path id="Caminho_269" d="M47.051 47.854a1.8 1.8 0 0 0 .772 1.493 2.02 2.02 0 0 0 2.523-.206l.1-.1L47 47.7a.189.189 0 0 1 .051.154z" class="cls-1" data-name="Caminho 269" transform="translate(-22.718 -23.212)"/>
            <path id="Caminho_270" d="M73.048 69.818l.206.206a.653.653 0 0 1 0 .927.716.716 0 0 1-.978 0l-.206-.206a10.919 10.919 0 0 1-.669 5.871 8.84 8.84 0 0 0 2.884-.772c.051.1.155.155.206.257a2.956 2.956 0 0 0 4.068 0 2.678 2.678 0 0 0 0-3.914c-.1-.051-.154-.154-.257-.206a8.675 8.675 0 0 0 .824-2.781 12.759 12.759 0 0 1-6.078.618z" class="cls-1" data-name="Caminho 270" transform="translate(-34.553 -33.64)"/>
            <path id="Caminho_271" d="M57.686 61.977a.668.668 0 0 1-1.287-.36l.566-2.008L53 55.9v5.253l1.854 1.03a.674.674 0 0 1 .257.875.739.739 0 0 1-.927.257l-1.133-.615a8.325 8.325 0 0 0 5.974 7.1A7.974 7.974 0 0 0 58 60.741z" class="cls-1" data-name="Caminho 271" transform="translate(-25.629 -27.19)"/>
            <path id="Caminho_272" d="M16.355 61.86l1.545-3.553c0 .052.051.052.051.1l.463-.154a8.007 8.007 0 0 1 1.236-8.6l.36 1.236a.668.668 0 0 0 1.287-.36l-.566-2.008 3.193-3.038v-1.03l-.1.1 1.133-2.678a1.877 1.877 0 0 1-.772-1.493v-.154l-2.214-.875h-5.15l-1.081-1.8a.739.739 0 0 0-.927-.257.628.628 0 0 0-.257.875l.669 1.081a8.683 8.683 0 0 1-7.315-5.407L3.893 32.3a5.128 5.128 0 0 0-.566.515 11.081 11.081 0 0 0 0 16.119 5.512 5.512 0 0 0 .824.721 7.606 7.606 0 0 0-.051 1.081A11.668 11.668 0 0 0 16 62.117h.669a2.24 2.24 0 0 1-.309-.36c.047.103.047.103-.005.103zM3.687 43.733h-.36a2.783 2.783 0 1 1 0-5.562h.36a7.966 7.966 0 0 1 1.493-2.524 11.225 11.225 0 0 0 3.862 4.635h-.308a.669.669 0 1 0 0 1.339h.309A12.294 12.294 0 0 0 5.18 46.2a7.229 7.229 0 0 1-1.493-2.467zM12.081 58.1a2.8 2.8 0 0 1-2.008.772 2.826 2.826 0 0 1-2.884-2.781 2.565 2.565 0 0 1 .978-2.06A7.987 7.987 0 0 1 7.5 51.56a12.411 12.411 0 0 0 6.128.618l-.206.206a.653.653 0 0 0 0 .927.716.716 0 0 0 .978 0l.206-.206a10.919 10.919 0 0 0 .669 5.871 7.378 7.378 0 0 1-3.194-.876zm-4.223-9.784a8.567 8.567 0 0 1 7.416-5.716l-.674 1.081a.617.617 0 0 0 .257.875.675.675 0 0 0 .927-.257l1.081-1.8h5.51l-3.914 3.759-2.06-.515a.668.668 0 0 0-.36 1.287l1.287.309a9.051 9.051 0 0 1-9.47.977z" class="cls-2" data-name="Caminho 272" transform="translate(.15 -15.743)"/>
            <path id="Caminho_273" d="M63.6 58.179c0-.051.051-.051 0 0l-3.656-1.442a8.922 8.922 0 0 1-9.476-.978l1.287-.309a.668.668 0 1 0-.36-1.287l-2.111.515-3.708-3.553-2.11-.825-.1.1a2.02 2.02 0 0 1-2.523.206l-1.133 2.678.1-.1v5.3l-1.854 1.03a.674.674 0 0 0-.257.875.739.739 0 0 0 .927.257l1.133-.618a8.467 8.467 0 0 1-5.51 6.952 2.087 2.087 0 0 0 .257.463c.052 0 .052 0 .1-.051l-1.545 3.553-.051-.051a1.134 1.134 0 0 0-.412.051 3.107 3.107 0 0 0 .412.412 12.333 12.333 0 0 0 16.84 0 9.887 9.887 0 0 0 .721-.772 7.606 7.606 0 0 0 1.081.051c6.54 0 11.9-5.15 11.9-11.381a2.628 2.628 0 0 0 .048-1.076zM43.878 73.114a2.956 2.956 0 0 1-4.068 0 2.578 2.578 0 0 1-.824-1.905 9.312 9.312 0 0 1-2.935-1.493 12.172 12.172 0 0 0 4.789-3.708v.309a.669.669 0 1 0 1.339 0v-.309a12.172 12.172 0 0 0 4.789 3.708A9.123 9.123 0 0 1 44.7 71a2.708 2.708 0 0 1-.822 2.114zm5.253-6.025a8.325 8.325 0 0 1-5.974-7.107l1.133.618a.675.675 0 0 0 .927-.257.617.617 0 0 0-.257-.875l-1.854-1.03v-5.254l3.914 3.708-.567 2.008a.668.668 0 0 0 1.287.36l.36-1.236a7.974 7.974 0 0 1 1.031 9.065zm10.66-.206a2.956 2.956 0 0 1-4.068 0 .514.514 0 0 1-.206-.257 8.84 8.84 0 0 1-2.884.772 10.919 10.919 0 0 0 .669-5.871l.206.206a.716.716 0 0 0 .978 0 .653.653 0 0 0 0-.927l-.206-.206a11.866 11.866 0 0 0 6.128-.669 7.55 7.55 0 0 1-.824 2.781c.1.051.154.154.257.206a2.782 2.782 0 0 1-.05 3.965z" class="cls-3" data-name="Caminho 273" transform="translate(-15.734 -24.473)"/>
            <path id="Caminho_274" d="M32.775 86.665l1.545-3.553c-.051 0-.051 0-.1.051-.1-.155-.154-.309-.257-.463l-.463.154c0-.051-.051-.051-.051-.1L31.9 86.3h.1c.1.1.206.257.309.36a1.134 1.134 0 0 0 .412-.051z" class="cls-4" data-name="Caminho 274" transform="translate(-15.395 -40.188)"/>
            <path id="Caminho_275" d="M11.714 18.046a8.922 8.922 0 0 1 9.476.978l-1.287.309a.668.668 0 1 0 .36 1.287l2.111-.515 3.914 3.708h-.36l2.214.875a1.922 1.922 0 0 1 1.958-1.75 2.113 2.113 0 0 1 1.133.36 1.926 1.926 0 0 0-.824-.36l.772-1.751v.154l.721-.669V16.4l1.854-1.03a.628.628 0 0 0 .257-.875.739.739 0 0 0-.927-.257l-1.133.618a8.467 8.467 0 0 1 5.51-6.956 2.087 2.087 0 0 0-.257-.463h-.051L38.7 3.884a.05.05 0 0 0 .051.051 1.134 1.134 0 0 0 .412-.051 3.108 3.108 0 0 0-.412-.412 12.333 12.333 0 0 0-16.84 0 9.887 9.887 0 0 0-.721.772 7.606 7.606 0 0 0-1.081-.051c-6.746-.051-12.1 5.047-12.1 11.33a7.606 7.606 0 0 0 .048 1.077c-.1.051-.154.154-.257.206l4.017 1.545a.732.732 0 0 1-.103-.305zm15.758-14.42A2.871 2.871 0 0 1 30.356 1a2.817 2.817 0 0 1 2.884 2.729 9.614 9.614 0 0 1 2.472 1.339 12.172 12.172 0 0 0-4.789 3.708v-.309a.669.669 0 1 0-1.339 0v.309a12.172 12.172 0 0 0-4.789-3.708 7.439 7.439 0 0 1 2.677-1.442zm-4.943 4.017A8.325 8.325 0 0 1 28.5 14.75l-1.133-.618a.675.675 0 0 0-.927.257.583.583 0 0 0 .257.875l1.854 1.03v5.253L24.64 17.84l.566-2.008a.661.661 0 0 0-.463-.824.8.8 0 0 0-.875.515l-.36 1.236a8.136 8.136 0 0 1-.979-9.116zM11.3 9.909a2.826 2.826 0 0 1 2.884-2.781A3.041 3.041 0 0 1 16.3 8a10.051 10.051 0 0 1 2.781-.721 10.919 10.919 0 0 0-.669 5.871l-.206-.206a.716.716 0 0 0-.978 0 .653.653 0 0 0 0 .927l.206.206a12.411 12.411 0 0 0-6.134.623 7.584 7.584 0 0 1 .875-2.832 2.68 2.68 0 0 1-.875-1.959z" class="cls-5" data-name="Caminho 275" transform="translate(-3.706 -.15)"/>
            <path id="Caminho_276" d="M52.272 40.266l-.772 1.751a1.693 1.693 0 0 1 .824.36l.772-1.751-.1.1V39.7l-.721.772z" class="cls-6" data-name="Caminho 276" transform="translate(-24.901 -19.332)"/>
            <path id="Caminho_277" d="M52.272 40.266l-.772 1.751a1.693 1.693 0 0 1 .824.36l.772-1.751-.1.1V39.7l-.721.772z" class="cls-7" data-name="Caminho 277" transform="translate(-24.901 -19.332)"/>
            <path id="Caminho_278" d="M73.593 20.432c-.257-.257-.515-.463-.824-.721a7.254 7.254 0 0 0 .051-1.03A11.635 11.635 0 0 0 60.924 7.3h-.669a1.134 1.134 0 0 0-.412.051.05.05 0 0 0-.051-.051l-1.545 3.553h.053c.1.154.154.309.257.463a8.007 8.007 0 0 1-1.236 8.6l-.36-1.236a.668.668 0 0 0-1.287.36l.566 2.008-3.193 3.038-.772.669V24.6l-.775 1.754a1.693 1.693 0 0 1 .824.36c.051.051.154.1.206.154a1.853 1.853 0 0 1 .1 2.575l2.111.824-.206-.206h5.51l1.081 1.8a.739.739 0 0 0 .927.257.617.617 0 0 0 .257-.875l-.669-1.081a8.629 8.629 0 0 1 7.416 5.716l3.708 1.442a8.95 8.95 0 0 0 .772-.669 11.158 11.158 0 0 0 .056-16.219zm-9.115-9.27a3.009 3.009 0 0 1 4.068.051 2.69 2.69 0 0 1 .1 3.811 7.839 7.839 0 0 1 .875 2.884 13.06 13.06 0 0 0-6.128-.669l.206-.206a.653.653 0 0 0 0-.927.716.716 0 0 0-.978 0l-.206.206a10.919 10.919 0 0 0-.669-5.871 10.184 10.184 0 0 1 2.732.721zm-2.73 15.759l.669-1.081a.617.617 0 0 0-.257-.875.724.724 0 0 0-.927.257l-1.081 1.8h-5.51l3.914-3.708 2.111.515a.668.668 0 1 0 .36-1.287l-1.287-.309a9.029 9.029 0 0 1 9.476-.978 8.86 8.86 0 0 1-7.468 5.666zm11.587 4.274a7.658 7.658 0 0 1-1.493 2.575 10.772 10.772 0 0 0-3.862-4.583h.309a.669.669 0 1 0 0-1.339h-.309a12.063 12.063 0 0 0 3.862-4.635 8.868 8.868 0 0 1 1.442 2.42 2.94 2.94 0 0 1 2.163.824 2.678 2.678 0 0 1 0 3.914 3.132 3.132 0 0 1-2.112.824z" class="cls-8" data-name="Caminho 278" transform="translate(-24.901 -3.617)"/>
        </g>
        <g id="logotipo">
            <path id="Caminho_418" d="M10.881-3.294a7.764 7.764 0 0 0 1.674-.162 8.2 8.2 0 0 0 1.377-.432v-2.984h-1.944a.944.944 0 0 1-.675-.23.764.764 0 0 1-.243-.58v-2.511h6.993v8.3a10.306 10.306 0 0 1-1.573.952 10.159 10.159 0 0 1-1.741.655 12.966 12.966 0 0 1-1.971.378 19.529 19.529 0 0 1-2.248.124 10.313 10.313 0 0 1-4-.763 9.711 9.711 0 0 1-3.175-2.106 9.693 9.693 0 0 1-2.106-3.186 10.363 10.363 0 0 1-.763-4 10.9 10.9 0 0 1 .729-4.043A9.107 9.107 0 0 1 3.3-17.064a9.463 9.463 0 0 1 3.28-2.079 11.858 11.858 0 0 1 4.3-.742 12.523 12.523 0 0 1 2.309.2 11.358 11.358 0 0 1 1.991.553 9.164 9.164 0 0 1 1.667.837A8.98 8.98 0 0 1 18.2-17.24l-1.323 2.011a1.47 1.47 0 0 1-.452.446 1.074 1.074 0 0 1-.574.162 1.581 1.581 0 0 1-.837-.27q-.54-.324-1.019-.56a6.219 6.219 0 0 0-.979-.385 6.415 6.415 0 0 0-1.053-.216 10.333 10.333 0 0 0-1.242-.067 5.666 5.666 0 0 0-2.309.452 4.95 4.95 0 0 0-1.748 1.276 5.77 5.77 0 0 0-1.114 1.978 7.972 7.972 0 0 0-.391 2.572 8.277 8.277 0 0 0 .432 2.781 5.975 5.975 0 0 0 1.193 2.051 5.073 5.073 0 0 0 1.809 1.276 5.858 5.858 0 0 0 2.288.439zM20.844 0v-14h2.484a2.118 2.118 0 0 1 .52.054.912.912 0 0 1 .351.169.72.72 0 0 1 .216.3 2.739 2.739 0 0 1 .128.459l.229 1.31a6.86 6.86 0 0 1 1.728-1.873 3.511 3.511 0 0 1 2.093-.689 2.411 2.411 0 0 1 1.539.459l-.54 3.078a.6.6 0 0 1-.216.4.733.733 0 0 1-.432.115 2.865 2.865 0 0 1-.54-.061 4.186 4.186 0 0 0-.783-.061 2.874 2.874 0 0 0-2.592 1.755V0zM35.91-14v8.883a2.443 2.443 0 0 0 .472 1.606 1.707 1.707 0 0 0 1.391.567 2.983 2.983 0 0 0 1.289-.283 4.809 4.809 0 0 0 1.168-.8V-14h4.185V0h-2.592A.984.984 0 0 1 40.8-.7l-.257-.81a8.123 8.123 0 0 1-.843.71 5.123 5.123 0 0 1-.925.54 5.524 5.524 0 0 1-1.06.351 5.631 5.631 0 0 1-1.242.128 4.9 4.9 0 0 1-2.032-.4A4.18 4.18 0 0 1 32.953-1.3a4.858 4.858 0 0 1-.918-1.688 6.979 6.979 0 0 1-.31-2.133V-14zM47.655 4.442V-14h2.592a1.155 1.155 0 0 1 .655.176.937.937 0 0 1 .371.526l.311 1.026a7.036 7.036 0 0 1 .871-.81 5.737 5.737 0 0 1 1-.628 5.506 5.506 0 0 1 1.147-.412 5.713 5.713 0 0 1 1.343-.149 4.312 4.312 0 0 1 2.025.486 4.666 4.666 0 0 1 1.606 1.4 7.085 7.085 0 0 1 1.06 2.248 10.862 10.862 0 0 1 .385 3.017 9.3 9.3 0 0 1-.44 2.92 7.327 7.327 0 0 1-1.229 2.322 5.659 5.659 0 0 1-1.89 1.539 5.345 5.345 0 0 1-2.437.554 4.77 4.77 0 0 1-1.835-.31 4.985 4.985 0 0 1-1.35-.837v5.374zm6.831-15.512a3.616 3.616 0 0 0-.83.088 3.05 3.05 0 0 0-.688.25 2.611 2.611 0 0 0-.587.412 6.1 6.1 0 0 0-.54.574v5.94a2.645 2.645 0 0 0 1.026.736 3.256 3.256 0 0 0 1.161.209 2.466 2.466 0 0 0 1.066-.23 2.173 2.173 0 0 0 .844-.736 3.919 3.919 0 0 0 .56-1.316 8.245 8.245 0 0 0 .2-1.971 9.068 9.068 0 0 0-.162-1.863 3.838 3.838 0 0 0-.452-1.222 1.756 1.756 0 0 0-.7-.668 1.994 1.994 0 0 0-.898-.203zM69.5-14.216a8.085 8.085 0 0 1 2.9.5 6.366 6.366 0 0 1 2.248 1.431 6.446 6.446 0 0 1 1.458 2.261 8.158 8.158 0 0 1 .52 2.99 8.305 8.305 0 0 1-.52 3.017 6.491 6.491 0 0 1-1.458 2.282A6.4 6.4 0 0 1 72.4-.29a7.989 7.989 0 0 1-2.9.506 8.082 8.082 0 0 1-2.925-.506 6.522 6.522 0 0 1-2.268-1.445 6.4 6.4 0 0 1-1.472-2.282 8.305 8.305 0 0 1-.52-3.017 8.158 8.158 0 0 1 .52-2.99 6.353 6.353 0 0 1 1.472-2.261 6.491 6.491 0 0 1 2.268-1.431 8.18 8.18 0 0 1 2.925-.5zm0 11.327a2.377 2.377 0 0 0 2.126-1.019 5.637 5.637 0 0 0 .682-3.1 5.6 5.6 0 0 0-.682-3.091 2.382 2.382 0 0 0-2.126-1.012 2.441 2.441 0 0 0-2.175 1.011 5.557 5.557 0 0 0-.688 3.091 5.592 5.592 0 0 0 .688 3.1 2.436 2.436 0 0 0 2.175 1.02zM96.093 0H91.5v-8.316h-7.989V0h-4.59v-19.67h4.59v8.221H91.5v-8.221h4.59zm7.155-14v8.883a2.443 2.443 0 0 0 .472 1.606 1.707 1.707 0 0 0 1.391.567 2.983 2.983 0 0 0 1.289-.283 4.809 4.809 0 0 0 1.168-.8V-14h4.185V0h-2.592a.984.984 0 0 1-1.026-.7l-.256-.81a8.124 8.124 0 0 1-.837.709 5.123 5.123 0 0 1-.925.54 5.524 5.524 0 0 1-1.06.351 5.631 5.631 0 0 1-1.242.128 4.9 4.9 0 0 1-2.032-.4 4.18 4.18 0 0 1-1.491-1.118 4.858 4.858 0 0 1-.918-1.688 6.979 6.979 0 0 1-.311-2.133V-14zm11.745 14v-14h2.592a1.155 1.155 0 0 1 .655.176.937.937 0 0 1 .371.526l.243.81a10.167 10.167 0 0 1 .837-.7 4.9 4.9 0 0 1 .925-.547 5.489 5.489 0 0 1 1.066-.351 5.723 5.723 0 0 1 1.249-.128 4.9 4.9 0 0 1 2.032.4 4.216 4.216 0 0 1 1.492 1.107 4.778 4.778 0 0 1 .918 1.688 7 7 0 0 1 .31 2.126V0H123.5v-8.9a2.448 2.448 0 0 0-.472-1.6 1.7 1.7 0 0 0-1.391-.574 2.912 2.912 0 0 0-1.3.3 5.039 5.039 0 0 0-1.161.8V0zm20.574.216a4.935 4.935 0 0 1-1.762-.29 3.5 3.5 0 0 1-1.282-.826 3.511 3.511 0 0 1-.79-1.289 4.991 4.991 0 0 1-.27-1.687v-7.236h-1.188a.793.793 0 0 1-.553-.209.79.79 0 0 1-.23-.614v-1.633l2.227-.432.824-3.415a.832.832 0 0 1 .918-.648h2.187v4.091h3.4v2.862h-3.4v6.952a1.308 1.308 0 0 0 .236.8.8.8 0 0 0 .682.317 1.34 1.34 0 0 0 .385-.047 1.532 1.532 0 0 0 .27-.108q.115-.061.216-.108a.553.553 0 0 1 .236-.047.487.487 0 0 1 .3.088 1.087 1.087 0 0 1 .236.277L139.482-1a5.775 5.775 0 0 1-1.823.911 7.243 7.243 0 0 1-2.092.305z" class="cls-9" data-name="Caminho 418" transform="translate(433.512 54)"/>
            <path id="Caminho_419" d="M6.447-8.281a.519.519 0 0 1-.179.217.449.449 0 0 1-.241.064.614.614 0 0 1-.315-.109q-.175-.108-.413-.241a3.373 3.373 0 0 0-.556-.241A2.339 2.339 0 0 0 3.99-8.7a2.212 2.212 0 0 0-.683.094 1.445 1.445 0 0 0-.49.263 1.049 1.049 0 0 0-.3.4 1.321 1.321 0 0 0-.1.514.9.9 0 0 0 .2.6 1.666 1.666 0 0 0 .529.406 4.9 4.9 0 0 0 .749.3q.42.133.858.284a8.258 8.258 0 0 1 .858.35 2.972 2.972 0 0 1 .749.5 2.284 2.284 0 0 1 .529.746 2.589 2.589 0 0 1 .2 1.071 3.49 3.49 0 0 1-.234 1.284 2.963 2.963 0 0 1-.684 1.044 3.231 3.231 0 0 1-1.1.7 4.059 4.059 0 0 1-1.494.256 4.808 4.808 0 0 1-.952-.094 5.011 5.011 0 0 1-.9-.27 4.7 4.7 0 0 1-.805-.42 3.961 3.961 0 0 1-.669-.546l.546-.9a.7.7 0 0 1 .186-.165.453.453 0 0 1 .242-.066.668.668 0 0 1 .378.144q.2.144.479.319a3.679 3.679 0 0 0 .651.319 2.517 2.517 0 0 0 .9.143 1.846 1.846 0 0 0 1.246-.386 1.37 1.37 0 0 0 .441-1.1 1.017 1.017 0 0 0-.2-.651 1.611 1.611 0 0 0-.529-.424 3.946 3.946 0 0 0-.749-.29q-.42-.119-.854-.259a7.364 7.364 0 0 1-.854-.336 2.767 2.767 0 0 1-.749-.511 2.325 2.325 0 0 1-.529-.788 3 3 0 0 1-.2-1.166 2.759 2.759 0 0 1 .22-1.078 2.76 2.76 0 0 1 .644-.931 3.179 3.179 0 0 1 1.04-.651 3.784 3.784 0 0 1 1.407-.245 4.722 4.722 0 0 1 1.652.28 3.729 3.729 0 0 1 1.288.784zm5.054.987a3.936 3.936 0 0 1 1.46.259 3.147 3.147 0 0 1 1.116.735 3.254 3.254 0 0 1 .714 1.162 4.42 4.42 0 0 1 .252 1.533 4.442 4.442 0 0 1-.252 1.54A3.325 3.325 0 0 1 14.077-.9a3.1 3.1 0 0 1-1.116.742A3.936 3.936 0 0 1 11.5.105a3.963 3.963 0 0 1-1.463-.259A3.13 3.13 0 0 1 8.915-.9a3.34 3.34 0 0 1-.721-1.169 4.387 4.387 0 0 1-.256-1.54 4.365 4.365 0 0 1 .256-1.533A3.268 3.268 0 0 1 8.915-6.3a3.176 3.176 0 0 1 1.123-.735 3.963 3.963 0 0 1 1.462-.259zm0 6.069a1.521 1.521 0 0 0 1.326-.6 3.018 3.018 0 0 0 .431-1.764 3.053 3.053 0 0 0-.431-1.771 1.514 1.514 0 0 0-1.327-.611 1.535 1.535 0 0 0-1.344.613 3.037 3.037 0 0 0-.434 1.767 3 3 0 0 0 .434 1.761 1.542 1.542 0 0 0 1.344.605zm6.734-9.175V0h-1.729v-10.4zm3.535 3.22v4.564a1.534 1.534 0 0 0 .3 1.018 1.129 1.129 0 0 0 .913.361 1.826 1.826 0 0 0 .84-.2 2.936 2.936 0 0 0 .742-.549v-5.196H26.3V0h-1.058a.425.425 0 0 1-.442-.315l-.119-.574a5.006 5.006 0 0 1-.462.41 2.787 2.787 0 0 1-.507.315 2.846 2.846 0 0 1-.581.2 2.906 2.906 0 0 1-.669.073 2.55 2.55 0 0 1-1.039-.2 2.082 2.082 0 0 1-.76-.564 2.467 2.467 0 0 1-.465-.865 3.659 3.659 0 0 1-.157-1.1v-4.562zm8.288 8.771a.393.393 0 0 1 .1.014l.119.035a1.135 1.135 0 0 0 .147.035 1.141 1.141 0 0 0 .193.014.57.57 0 0 0 .347-.087.26.26 0 0 0 .115-.213q0-.2-.252-.291A4.29 4.29 0 0 0 30.05.94l.266-.882a3.05 3.05 0 0 1-1.046-.389 2.987 2.987 0 0 1-.844-.756 3.586 3.586 0 0 1-.56-1.1 4.632 4.632 0 0 1-.2-1.418 4.568 4.568 0 0 1 .228-1.467 3.322 3.322 0 0 1 .668-1.169 3.065 3.065 0 0 1 1.092-.774 3.762 3.762 0 0 1 1.5-.28 3.563 3.563 0 0 1 1.411.259 3.446 3.446 0 0 1 1.088.742l-.455.63a.862.862 0 0 1-.151.154.348.348 0 0 1-.213.056.475.475 0 0 1-.259-.081q-.126-.08-.3-.182a2.25 2.25 0 0 0-.417-.182 1.914 1.914 0 0 0-.6-.081 1.826 1.826 0 0 0-.8.164 1.513 1.513 0 0 0-.571.473 2.129 2.129 0 0 0-.34.745 4 4 0 0 0-.112.991 3.883 3.883 0 0 0 .122 1.022 2.185 2.185 0 0 0 .354.753 1.521 1.521 0 0 0 .56.462 1.7 1.7 0 0 0 .742.158 1.84 1.84 0 0 0 .669-.1 2.109 2.109 0 0 0 .431-.224q.175-.123.3-.224a.459.459 0 0 1 .29-.1.385.385 0 0 1 .315.161l.5.63a3 3 0 0 1-1.085.83 3.955 3.955 0 0 1-1.246.319L31.3.385a1.817 1.817 0 0 1 .879.415.865.865 0 0 1 .252.619.756.756 0 0 1-.123.42 1.028 1.028 0 0 1-.346.322 1.9 1.9 0 0 1-.539.207 3.051 3.051 0 0 1-.693.073 3.217 3.217 0 0 1-.535-.042 3.7 3.7 0 0 1-.493-.119l.161-.532a.189.189 0 0 1 .195-.159zm7.833-8.883a3.936 3.936 0 0 1 1.459.259 3.147 3.147 0 0 1 1.117.735 3.254 3.254 0 0 1 .714 1.162 4.42 4.42 0 0 1 .252 1.533 4.442 4.442 0 0 1-.252 1.54A3.325 3.325 0 0 1 40.467-.9a3.1 3.1 0 0 1-1.117.742 3.936 3.936 0 0 1-1.459.259 3.963 3.963 0 0 1-1.463-.259A3.13 3.13 0 0 1 35.3-.9a3.34 3.34 0 0 1-.721-1.169 4.387 4.387 0 0 1-.255-1.54 4.365 4.365 0 0 1 .255-1.533A3.268 3.268 0 0 1 35.3-6.3a3.176 3.176 0 0 1 1.124-.735 3.963 3.963 0 0 1 1.467-.259zm0 6.069a1.521 1.521 0 0 0 1.326-.6 3.018 3.018 0 0 0 .431-1.764 3.053 3.053 0 0 0-.431-1.771 1.514 1.514 0 0 0-1.326-.609 1.535 1.535 0 0 0-1.344.613 3.037 3.037 0 0 0-.434 1.767 3 3 0 0 0 .434 1.761 1.542 1.542 0 0 0 1.344.601zm.756-8.288a.452.452 0 0 0 .329-.116.573.573 0 0 0 .119-.416h1.05a2.194 2.194 0 0 1-.108.71 1.7 1.7 0 0 1-.3.546 1.291 1.291 0 0 1-.451.35 1.349 1.349 0 0 1-.578.122 1.2 1.2 0 0 1-.469-.091 4.1 4.1 0 0 1-.406-.2l-.354-.2a.636.636 0 0 0-.3-.091.417.417 0 0 0-.319.123.6.6 0 0 0-.116.416h-1.072a2.194 2.194 0 0 1 .109-.71 1.632 1.632 0 0 1 .3-.546 1.4 1.4 0 0 1 .459-.354 1.3 1.3 0 0 1 .57-.126 1.226 1.226 0 0 1 .472.091 3.931 3.931 0 0 1 .41.2l.35.2a.617.617 0 0 0 .305.09zm7.1 2.219A3.487 3.487 0 0 1 47-7.077a2.736 2.736 0 0 1 .983.633 2.894 2.894 0 0 1 .644 1.022 3.859 3.859 0 0 1 .231 1.383 2.5 2.5 0 0 1-.017.325.521.521 0 0 1-.063.2.255.255 0 0 1-.123.1.522.522 0 0 1-.2.032h-4.432a2.473 2.473 0 0 0 .595 1.624 1.855 1.855 0 0 0 1.372.518 2.376 2.376 0 0 0 .724-.1 3.4 3.4 0 0 0 .532-.217q.227-.119.4-.217a.669.669 0 0 1 .333-.1.375.375 0 0 1 .182.042.4.4 0 0 1 .133.119l.5.63a2.882 2.882 0 0 1-.644.564 3.612 3.612 0 0 1-.745.364 4.075 4.075 0 0 1-.791.193 5.664 5.664 0 0 1-.78.056 3.837 3.837 0 0 1-1.393-.249 3.118 3.118 0 0 1-1.12-.735 3.448 3.448 0 0 1-.749-1.2 4.659 4.659 0 0 1-.272-1.655 3.976 3.976 0 0 1 .238-1.382 3.324 3.324 0 0 1 .682-1.127 3.213 3.213 0 0 1 1.085-.76 3.574 3.574 0 0 1 1.447-.28zm.035 1.239a1.6 1.6 0 0 0-1.183.427 2.106 2.106 0 0 0-.546 1.211h3.248a2.155 2.155 0 0 0-.091-.634 1.461 1.461 0 0 0-.28-.522 1.325 1.325 0 0 0-.476-.353 1.621 1.621 0 0 0-.667-.131zm8.743.273a.461.461 0 0 1-.147.157.381.381 0 0 1-.2.045.618.618 0 0 1-.27-.07q-.144-.07-.333-.157a3.045 3.045 0 0 0-.431-.158 2.062 2.062 0 0 0-.57-.07 1.329 1.329 0 0 0-.805.217.673.673 0 0 0-.294.567.541.541 0 0 0 .151.389 1.353 1.353 0 0 0 .4.277 3.9 3.9 0 0 0 .563.214q.315.095.644.207t.644.255a2.245 2.245 0 0 1 .563.364 1.691 1.691 0 0 1 .4.528 1.677 1.677 0 0 1 .15.742 2.384 2.384 0 0 1-.189.956 2.1 2.1 0 0 1-.553.756 2.592 2.592 0 0 1-.9.5 3.881 3.881 0 0 1-1.229.179A3.911 3.911 0 0 1 51.4.046a4.276 4.276 0 0 1-.679-.186 3.758 3.758 0 0 1-.6-.28 2.922 2.922 0 0 1-.486-.35l.4-.658a.564.564 0 0 1 .182-.182.51.51 0 0 1 .266-.063.559.559 0 0 1 .3.091q.144.091.333.2a2.972 2.972 0 0 0 .444.2 1.956 1.956 0 0 0 .647.091 1.68 1.68 0 0 0 .528-.074 1.118 1.118 0 0 0 .364-.192.723.723 0 0 0 .21-.276.829.829 0 0 0 .067-.326.581.581 0 0 0-.151-.413 1.317 1.317 0 0 0-.4-.28 3.854 3.854 0 0 0-.567-.214q-.319-.094-.651-.207a6.022 6.022 0 0 1-.651-.263 2.219 2.219 0 0 1-.567-.381 1.727 1.727 0 0 1-.4-.567 1.979 1.979 0 0 1-.15-.812 2.069 2.069 0 0 1 .175-.84 1.97 1.97 0 0 1 .514-.7 2.555 2.555 0 0 1 .847-.476 3.528 3.528 0 0 1 1.173-.179 3.589 3.589 0 0 1 1.351.245 3.051 3.051 0 0 1 1.015.644zm11.039-4.34v1.5h-4.482v2.807h3.535v1.449h-3.535V-1.5h4.487V0h-6.384v-10.122zM67.1 0v-7.182h1.057a.425.425 0 0 1 .441.315l.112.532a4.09 4.09 0 0 1 .4-.385 2.541 2.541 0 0 1 .441-.3 2.389 2.389 0 0 1 .5-.2 2.244 2.244 0 0 1 .592-.073 1.676 1.676 0 0 1 1.116.368 2.213 2.213 0 0 1 .655.977 2.192 2.192 0 0 1 .42-.613 2.3 2.3 0 0 1 .553-.416 2.545 2.545 0 0 1 .641-.238 3.076 3.076 0 0 1 .682-.077 2.868 2.868 0 0 1 1.057.182 2.027 2.027 0 0 1 .777.532 2.345 2.345 0 0 1 .48.854 3.72 3.72 0 0 1 .164 1.155V0H75.46v-4.571a1.536 1.536 0 0 0-.3-1.032 1.105 1.105 0 0 0-.882-.346 1.317 1.317 0 0 0-.493.091 1.176 1.176 0 0 0-.4.262 1.2 1.2 0 0 0-.269.431 1.674 1.674 0 0 0-.1.595V0h-1.735v-4.571a1.564 1.564 0 0 0-.29-1.05 1.084 1.084 0 0 0-.857-.329 1.384 1.384 0 0 0-.7.186 2.346 2.346 0 0 0-.605.507V0zm11.79 2.345v-9.527h1.057a.517.517 0 0 1 .287.077.36.36 0 0 1 .154.238l.14.665a3.625 3.625 0 0 1 1-.805 2.709 2.709 0 0 1 1.319-.308 2.355 2.355 0 0 1 1.075.245 2.411 2.411 0 0 1 .84.71 3.408 3.408 0 0 1 .546 1.148 5.776 5.776 0 0 1 .192 1.565 4.92 4.92 0 0 1-.217 1.491 3.649 3.649 0 0 1-.619 1.19 2.862 2.862 0 0 1-.973.788 2.831 2.831 0 0 1-1.278.284A2.569 2.569 0 0 1 81.38-.08a2.527 2.527 0 0 1-.761-.52v2.94zm3.36-8.3a1.766 1.766 0 0 0-.92.227 2.662 2.662 0 0 0-.711.641v3.22a1.646 1.646 0 0 0 .641.507 1.929 1.929 0 0 0 .745.143 1.676 1.676 0 0 0 .71-.147 1.379 1.379 0 0 0 .539-.448 2.216 2.216 0 0 0 .34-.76 4.34 4.34 0 0 0 .119-1.082 4.8 4.8 0 0 0-.1-1.068 2.062 2.062 0 0 0-.29-.71 1.148 1.148 0 0 0-.459-.4 1.43 1.43 0 0 0-.614-.118zM86.807 0v-7.182h1.015a.544.544 0 0 1 .371.1.564.564 0 0 1 .14.336l.105.868a3.412 3.412 0 0 1 .9-1.05 1.9 1.9 0 0 1 1.162-.387 1.5 1.5 0 0 1 .882.245l-.224 1.295a.267.267 0 0 1-.091.179.308.308 0 0 1-.189.052 1.179 1.179 0 0 1-.287-.049 1.921 1.921 0 0 0-.483-.049 1.466 1.466 0 0 0-.924.3 2.291 2.291 0 0 0-.651.871V0zm8.687-7.294a3.487 3.487 0 0 1 1.25.217 2.736 2.736 0 0 1 .983.633 2.894 2.894 0 0 1 .644 1.022 3.859 3.859 0 0 1 .229 1.383 2.5 2.5 0 0 1-.018.325.521.521 0 0 1-.063.2.255.255 0 0 1-.123.1.522.522 0 0 1-.2.032h-4.431a2.473 2.473 0 0 0 .6 1.624 1.855 1.855 0 0 0 1.372.518 2.376 2.376 0 0 0 .725-.1 3.4 3.4 0 0 0 .532-.217q.227-.119.4-.217a.669.669 0 0 1 .332-.1.375.375 0 0 1 .182.042.4.4 0 0 1 .133.119l.5.63a2.882 2.882 0 0 1-.644.564 3.612 3.612 0 0 1-.745.364 4.075 4.075 0 0 1-.791.193 5.664 5.664 0 0 1-.781.056 3.837 3.837 0 0 1-1.393-.249 3.118 3.118 0 0 1-1.12-.735 3.448 3.448 0 0 1-.749-1.2 4.659 4.659 0 0 1-.273-1.663 3.976 3.976 0 0 1 .238-1.382 3.324 3.324 0 0 1 .683-1.127 3.213 3.213 0 0 1 1.085-.76 3.574 3.574 0 0 1 1.443-.272zm.035 1.239a1.6 1.6 0 0 0-1.183.427 2.106 2.106 0 0 0-.546 1.211h3.248a2.155 2.155 0 0 0-.091-.634 1.461 1.461 0 0 0-.28-.522 1.325 1.325 0 0 0-.476-.353 1.621 1.621 0 0 0-.672-.129zm8.743.273a.461.461 0 0 1-.147.157.381.381 0 0 1-.2.045.618.618 0 0 1-.27-.07q-.143-.07-.333-.157a3.045 3.045 0 0 0-.43-.158 2.062 2.062 0 0 0-.571-.07 1.329 1.329 0 0 0-.805.217.673.673 0 0 0-.294.567.541.541 0 0 0 .151.389 1.353 1.353 0 0 0 .4.277 3.905 3.905 0 0 0 .563.214q.315.095.644.207t.644.255a2.245 2.245 0 0 1 .563.364 1.691 1.691 0 0 1 .4.528 1.676 1.676 0 0 1 .15.742 2.384 2.384 0 0 1-.189.956 2.1 2.1 0 0 1-.548.755 2.591 2.591 0 0 1-.9.5 3.881 3.881 0 0 1-1.229.179 3.911 3.911 0 0 1-.725-.067 4.276 4.276 0 0 1-.679-.186 3.757 3.757 0 0 1-.6-.28 2.922 2.922 0 0 1-.487-.35l.4-.658a.564.564 0 0 1 .182-.182.51.51 0 0 1 .266-.063.559.559 0 0 1 .3.091q.143.091.332.2a2.972 2.972 0 0 0 .445.2 1.956 1.956 0 0 0 .647.091 1.68 1.68 0 0 0 .528-.074 1.118 1.118 0 0 0 .364-.192.723.723 0 0 0 .21-.276.829.829 0 0 0 .066-.326.581.581 0 0 0-.15-.413 1.317 1.317 0 0 0-.4-.28 3.854 3.854 0 0 0-.567-.214q-.319-.094-.651-.207a6.022 6.022 0 0 1-.651-.263 2.219 2.219 0 0 1-.567-.381 1.727 1.727 0 0 1-.4-.567 1.979 1.979 0 0 1-.151-.812 2.069 2.069 0 0 1 .175-.84 1.97 1.97 0 0 1 .514-.7 2.555 2.555 0 0 1 .847-.476 3.528 3.528 0 0 1 1.173-.179 3.589 3.589 0 0 1 1.351.245 3.051 3.051 0 0 1 1.015.644zM111.755 0h-.777a.837.837 0 0 1-.385-.074.473.473 0 0 1-.21-.3l-.154-.511a5.931 5.931 0 0 1-.535.431 3.251 3.251 0 0 1-.543.312 2.767 2.767 0 0 1-.6.189 3.58 3.58 0 0 1-.7.063 2.75 2.75 0 0 1-.84-.123 1.809 1.809 0 0 1-.662-.369 1.674 1.674 0 0 1-.43-.611 2.174 2.174 0 0 1-.154-.85 1.681 1.681 0 0 1 .214-.8 2.013 2.013 0 0 1 .71-.716 4.536 4.536 0 0 1 1.323-.53 8.45 8.45 0 0 1 2.051-.211v-.423a1.605 1.605 0 0 0-.3-1.076 1.112 1.112 0 0 0-.885-.349 2.143 2.143 0 0 0-.7.1 2.708 2.708 0 0 0-.486.22q-.207.123-.382.22a.775.775 0 0 1-.385.1.5.5 0 0 1-.3-.091.716.716 0 0 1-.2-.224l-.315-.553a4.271 4.271 0 0 1 2.99-1.139 2.888 2.888 0 0 1 1.124.207 2.388 2.388 0 0 1 .836.574 2.456 2.456 0 0 1 .521.878 3.376 3.376 0 0 1 .179 1.12zM108.4-1.078a2.329 2.329 0 0 0 .49-.048 1.876 1.876 0 0 0 .424-.145 2.257 2.257 0 0 0 .385-.238 3.477 3.477 0 0 0 .374-.334v-1.2a7.02 7.02 0 0 0-1.263.1 3.338 3.338 0 0 0-.815.243 1.05 1.05 0 0 0-.437.345.768.768 0 0 0-.13.43.759.759 0 0 0 .27.656 1.162 1.162 0 0 0 .702.191zM113.456 0v-7.182h1.015a.544.544 0 0 1 .371.1.564.564 0 0 1 .14.336l.105.868a3.412 3.412 0 0 1 .9-1.05 1.9 1.9 0 0 1 1.162-.385 1.5 1.5 0 0 1 .882.245l-.224 1.295a.267.267 0 0 1-.091.179.308.308 0 0 1-.189.052 1.179 1.179 0 0 1-.287-.049 1.921 1.921 0 0 0-.483-.049 1.466 1.466 0 0 0-.924.3 2.291 2.291 0 0 0-.651.871V0zm7.56-7.182V0h-1.729v-7.182zm.259-2.093a.985.985 0 0 1-.091.42 1.154 1.154 0 0 1-.242.343 1.154 1.154 0 0 1-.354.235 1.085 1.085 0 0 1-.434.087 1.043 1.043 0 0 1-.424-.087 1.122 1.122 0 0 1-.346-.235 1.134 1.134 0 0 1-.235-.343 1.018 1.018 0 0 1-.088-.42 1.085 1.085 0 0 1 .088-.434 1.111 1.111 0 0 1 .235-.35 1.122 1.122 0 0 1 .346-.235 1.043 1.043 0 0 1 .424-.087 1.085 1.085 0 0 1 .434.087 1.154 1.154 0 0 1 .354.235 1.129 1.129 0 0 1 .242.35 1.049 1.049 0 0 1 .091.434zM128.6 0h-.777a.837.837 0 0 1-.385-.074.473.473 0 0 1-.21-.3l-.154-.511a5.931 5.931 0 0 1-.535.431 3.251 3.251 0 0 1-.543.312 2.767 2.767 0 0 1-.6.189 3.58 3.58 0 0 1-.7.063 2.75 2.75 0 0 1-.84-.123 1.809 1.809 0 0 1-.656-.367 1.674 1.674 0 0 1-.43-.611 2.174 2.174 0 0 1-.154-.85 1.681 1.681 0 0 1 .214-.8 2.013 2.013 0 0 1 .71-.716 4.536 4.536 0 0 1 1.323-.53 8.45 8.45 0 0 1 2.047-.213v-.423a1.605 1.605 0 0 0-.3-1.076 1.112 1.112 0 0 0-.885-.349 2.143 2.143 0 0 0-.7.1 2.708 2.708 0 0 0-.486.22q-.207.123-.382.22a.775.775 0 0 1-.385.1.5.5 0 0 1-.3-.091.716.716 0 0 1-.2-.224l-.315-.553a4.271 4.271 0 0 1 2.989-1.134 2.888 2.888 0 0 1 1.124.207 2.388 2.388 0 0 1 .836.574 2.457 2.457 0 0 1 .521.878 3.376 3.376 0 0 1 .178 1.12zm-3.36-1.078a2.329 2.329 0 0 0 .49-.048 1.876 1.876 0 0 0 .424-.145 2.257 2.257 0 0 0 .385-.238 3.477 3.477 0 0 0 .374-.334v-1.2a7.02 7.02 0 0 0-1.263.1 3.338 3.338 0 0 0-.815.243 1.05 1.05 0 0 0-.437.345.768.768 0 0 0-.13.43.759.759 0 0 0 .27.656 1.162 1.162 0 0 0 .699.191zm6.9-6.1V0h-1.73v-7.182zm.259-2.093a.985.985 0 0 1-.091.42 1.154 1.154 0 0 1-.242.343 1.154 1.154 0 0 1-.354.235 1.085 1.085 0 0 1-.434.087 1.043 1.043 0 0 1-.424-.087 1.122 1.122 0 0 1-.346-.235 1.134 1.134 0 0 1-.234-.343 1.018 1.018 0 0 1-.088-.42 1.085 1.085 0 0 1 .088-.434 1.111 1.111 0 0 1 .234-.35 1.122 1.122 0 0 1 .346-.235 1.043 1.043 0 0 1 .424-.087 1.085 1.085 0 0 1 .434.087 1.154 1.154 0 0 1 .354.235 1.129 1.129 0 0 1 .242.35 1.049 1.049 0 0 1 .092.43zm5.957 3.493a.461.461 0 0 1-.147.157.381.381 0 0 1-.2.045.618.618 0 0 1-.27-.07q-.143-.07-.332-.157a3.046 3.046 0 0 0-.431-.158 2.062 2.062 0 0 0-.57-.07 1.329 1.329 0 0 0-.8.217.673.673 0 0 0-.294.567.541.541 0 0 0 .15.389 1.353 1.353 0 0 0 .4.277 3.9 3.9 0 0 0 .564.214q.315.095.644.207t.644.255a2.245 2.245 0 0 1 .564.364 1.691 1.691 0 0 1 .4.528 1.676 1.676 0 0 1 .151.742 2.384 2.384 0 0 1-.189.956 2.1 2.1 0 0 1-.553.756 2.591 2.591 0 0 1-.9.5 3.881 3.881 0 0 1-1.229.179 3.911 3.911 0 0 1-.725-.067 4.276 4.276 0 0 1-.679-.186 3.758 3.758 0 0 1-.6-.28 2.922 2.922 0 0 1-.486-.35l.4-.658a.565.565 0 0 1 .182-.182.51.51 0 0 1 .266-.063.559.559 0 0 1 .3.091q.144.091.333.2a2.972 2.972 0 0 0 .445.2 1.956 1.956 0 0 0 .647.091 1.68 1.68 0 0 0 .529-.074 1.118 1.118 0 0 0 .364-.192.723.723 0 0 0 .21-.276.829.829 0 0 0 .066-.326.581.581 0 0 0-.15-.413 1.317 1.317 0 0 0-.4-.28 3.854 3.854 0 0 0-.567-.214q-.318-.094-.651-.207a6.022 6.022 0 0 1-.651-.263 2.219 2.219 0 0 1-.567-.381 1.727 1.727 0 0 1-.4-.567 1.979 1.979 0 0 1-.15-.812 2.069 2.069 0 0 1 .175-.84 1.97 1.97 0 0 1 .514-.7 2.555 2.555 0 0 1 .847-.476 3.528 3.528 0 0 1 1.173-.179 3.589 3.589 0 0 1 1.351.245 3.051 3.051 0 0 1 1.015.644z" class="cls-9" data-name="Caminho 419" transform="translate(434 70.987)"/>
        </g>
    </g>
</svg>
